M48
; DRILL file {KiCad 7.0.8} date Mon Dec 18 21:49:57 2023
; FORMAT={-:-/ absolute / inch / decimal}
; #@! TF.CreationDate,2023-12-18T21:49:57+05:30
; #@! TF.GenerationSoftware,Kicad,Pcbnew,7.0.8
; #@! TF.FileFunction,Plated,1,2,PTH
FMAT,2
INCH
; #@! TA.AperFunction,Plated,PTH,ViaDrill
T1C0.0079
; #@! TA.AperFunction,Plated,PTH,ComponentDrill
T2C0.0079
; #@! TA.AperFunction,Plated,PTH,ViaDrill
T3C0.0157
; #@! TA.AperFunction,Plated,PTH,ComponentDrill
T4C0.0256
; #@! TA.AperFunction,Plated,PTH,ComponentDrill
T5C0.0276
; #@! TA.AperFunction,Plated,PTH,ComponentDrill
T6C0.0394
%
G90
G05
T1
X4.4329Y-4.1187
T2
X5.4455Y-3.9298
X5.4455Y-3.9899
X5.4755Y-3.8998
X5.4755Y-3.9598
X5.4755Y-4.0199
X5.5055Y-3.9298
X5.5055Y-3.9899
X5.5355Y-3.8998
X5.5355Y-3.9598
X5.5355Y-4.0199
X5.5656Y-3.9298
X5.5656Y-3.9899
T3
X4.2177Y-4.3311
X4.2477Y-4.1893
X4.2784Y-3.6556
X4.2957Y-4.0722
X4.3325Y-3.5899
X4.4239Y-3.9375
X4.4626Y-4.1697
X4.4701Y-4.3514
X4.4831Y-3.9841
X4.5097Y-4.5241
X4.5246Y-4.1942
X4.5911Y-3.9412
X4.6928Y-3.6959
X4.7035Y-3.9394
X4.7099Y-3.589
X4.7266Y-4.268
X4.7482Y-4.1391
X4.7493Y-4.074
X4.7937Y-4.3574
X4.8261Y-3.8285
X4.8332Y-3.597
X4.8807Y-3.7994
X4.8887Y-4.0608
X4.9217Y-3.8159
X4.9453Y-4.139
X4.9501Y-3.8802
X4.9599Y-3.9209
X4.9651Y-4.0629
X4.9858Y-4.0053
X5.0019Y-3.6837
X5.0036Y-4.0437
X5.0076Y-4.1635
X5.0092Y-4.1028
X5.0233Y-3.76
X5.0274Y-4.2515
X5.0352Y-3.9696
X5.0624Y-4.2757
X5.1121Y-3.7164
X5.1479Y-4.1609
X5.3235Y-3.6952
X5.437Y-3.6948
T6
X3.9736Y-4.4756
X3.974Y-3.5319
X4.0736Y-4.4756
X4.074Y-3.5319
X4.1736Y-4.4756
X4.174Y-3.5319
X4.2736Y-4.4756
X4.274Y-3.5319
X4.3736Y-4.4756
X4.374Y-3.5319
X4.4736Y-4.4756
X4.474Y-3.5319
X4.5736Y-4.4756
X4.574Y-3.5319
X4.6736Y-4.4756
X4.674Y-3.5319
X4.7736Y-4.4756
X4.774Y-3.5319
X4.8736Y-4.4756
X4.874Y-3.5319
X4.9736Y-4.4756
X4.974Y-3.5319
X5.0736Y-4.4756
X5.074Y-3.5319
X5.1736Y-4.4756
X5.174Y-3.5319
X5.2736Y-4.4756
X5.274Y-3.5319
X5.3736Y-4.4756
X5.374Y-3.5319
X5.4736Y-4.4756
X5.474Y-3.5319
X5.5736Y-4.4756
X5.574Y-3.5319
X5.6736Y-4.4756
X5.674Y-3.5319
X5.7736Y-4.4756
X5.774Y-3.5319
T4
G00X4.0796Y-3.8941
M15
G01X4.0954Y-3.8941
M16
G05
G00X4.0796Y-4.0846
M15
G01X4.0954Y-4.0846
M16
G05
T5
G00X3.9595Y-3.8819
M15
G01X3.9792Y-3.8819
M16
G05
G00X3.9595Y-4.0969
M15
G01X3.9792Y-4.0969
M16
G05
T0
M30
