%TF.GenerationSoftware,KiCad,Pcbnew,7.0.8*%
%TF.CreationDate,2023-12-18T21:49:58+05:30*%
%TF.ProjectId,ESP WROOM 32-Devkit V4,45535020-5752-44f4-9f4d-2033322d4465,rev?*%
%TF.SameCoordinates,Original*%
%TF.FileFunction,Drillmap*%
%TF.FilePolarity,Positive*%
%FSLAX45Y45*%
G04 Gerber Fmt 4.5, Leading zero omitted, Abs format (unit mm)*
G04 Created by KiCad (PCBNEW 7.0.8) date 2023-12-18 21:49:58*
%MOMM*%
%LPD*%
G01*
G04 APERTURE LIST*
%ADD10C,0.100000*%
%ADD11C,0.200000*%
%ADD12C,0.020000*%
%ADD13C,0.040000*%
%ADD14C,0.065000*%
%ADD15C,0.070000*%
G04 APERTURE END LIST*
D10*
X9907000Y-8782000D02*
X14852000Y-8782000D01*
X14852000Y-11557000D01*
X9907000Y-11557000D01*
X9907000Y-8782000D01*
D11*
D12*
X11249454Y-10451534D02*
X11269454Y-10471534D01*
X11269454Y-10451534D02*
X11249454Y-10471534D01*
X13841500Y-9981750D02*
G75*
G03*
X13841500Y-9981750I-10000J0D01*
G01*
X13841500Y-10134250D02*
G75*
G03*
X13841500Y-10134250I-10000J0D01*
G01*
X13917750Y-9905500D02*
G75*
G03*
X13917750Y-9905500I-10000J0D01*
G01*
X13917750Y-10058000D02*
G75*
G03*
X13917750Y-10058000I-10000J0D01*
G01*
X13917750Y-10210500D02*
G75*
G03*
X13917750Y-10210500I-10000J0D01*
G01*
X13994000Y-9981750D02*
G75*
G03*
X13994000Y-9981750I-10000J0D01*
G01*
X13994000Y-10134250D02*
G75*
G03*
X13994000Y-10134250I-10000J0D01*
G01*
X14070250Y-9905500D02*
G75*
G03*
X14070250Y-9905500I-10000J0D01*
G01*
X14070250Y-10058000D02*
G75*
G03*
X14070250Y-10058000I-10000J0D01*
G01*
X14070250Y-10210500D02*
G75*
G03*
X14070250Y-10210500I-10000J0D01*
G01*
X14146500Y-9981750D02*
G75*
G03*
X14146500Y-9981750I-10000J0D01*
G01*
X14146500Y-10134250D02*
G75*
G03*
X14146500Y-10134250I-10000J0D01*
G01*
D13*
X10713000Y-10981000D02*
X10713000Y-11021000D01*
X10693000Y-11001000D02*
X10733000Y-11001000D01*
X10789100Y-10620900D02*
X10789100Y-10660900D01*
X10769100Y-10640900D02*
X10809100Y-10640900D01*
X10867100Y-9265340D02*
X10867100Y-9305340D01*
X10847100Y-9285340D02*
X10887100Y-9285340D01*
X10911000Y-10323400D02*
X10911000Y-10363400D01*
X10891000Y-10343400D02*
X10931000Y-10343400D01*
X11004600Y-9098230D02*
X11004600Y-9138230D01*
X10984600Y-9118230D02*
X11024600Y-9118230D01*
X11236600Y-9981200D02*
X11236600Y-10021200D01*
X11216600Y-10001200D02*
X11256600Y-10001200D01*
X11335000Y-10571000D02*
X11335000Y-10611000D01*
X11315000Y-10591000D02*
X11355000Y-10591000D01*
X11354100Y-11032500D02*
X11354100Y-11072500D01*
X11334100Y-11052500D02*
X11374100Y-11052500D01*
X11387000Y-10099600D02*
X11387000Y-10139600D01*
X11367000Y-10119600D02*
X11407000Y-10119600D01*
X11454600Y-11471200D02*
X11454600Y-11511200D01*
X11434600Y-11491200D02*
X11474600Y-11491200D01*
X11492500Y-10633200D02*
X11492500Y-10673200D01*
X11472500Y-10653200D02*
X11512500Y-10653200D01*
X11661400Y-9990700D02*
X11661400Y-10030700D01*
X11641400Y-10010700D02*
X11681400Y-10010700D01*
X11919700Y-9367530D02*
X11919700Y-9407530D01*
X11899700Y-9387530D02*
X11939700Y-9387530D01*
X11947000Y-9986000D02*
X11947000Y-10026000D01*
X11927000Y-10006000D02*
X11967000Y-10006000D01*
X11963100Y-9096020D02*
X11963100Y-9136020D01*
X11943100Y-9116020D02*
X11983100Y-9116020D01*
X12005600Y-10820800D02*
X12005600Y-10860800D01*
X11985600Y-10840800D02*
X12025600Y-10840800D01*
X12060400Y-10493200D02*
X12060400Y-10533200D01*
X12040400Y-10513200D02*
X12080400Y-10513200D01*
X12063300Y-10328000D02*
X12063300Y-10368000D01*
X12043300Y-10348000D02*
X12083300Y-10348000D01*
X12175900Y-11047800D02*
X12175900Y-11087800D01*
X12155900Y-11067800D02*
X12195900Y-11067800D01*
X12258300Y-9704420D02*
X12258300Y-9744420D01*
X12238300Y-9724420D02*
X12278300Y-9724420D01*
X12276400Y-9116480D02*
X12276400Y-9156480D01*
X12256400Y-9136480D02*
X12296400Y-9136480D01*
X12396900Y-9630530D02*
X12396900Y-9670530D01*
X12376900Y-9650530D02*
X12416900Y-9650530D01*
X12417400Y-10294500D02*
X12417400Y-10334500D01*
X12397400Y-10314500D02*
X12437400Y-10314500D01*
X12501200Y-9672360D02*
X12501200Y-9712360D01*
X12481200Y-9692360D02*
X12521200Y-9692360D01*
X12561000Y-10493100D02*
X12561000Y-10533100D01*
X12541000Y-10513100D02*
X12581000Y-10513100D01*
X12573300Y-9835770D02*
X12573300Y-9875770D01*
X12553300Y-9855770D02*
X12593300Y-9855770D01*
X12598100Y-9938970D02*
X12598100Y-9978970D01*
X12578100Y-9958970D02*
X12618100Y-9958970D01*
X12611300Y-10299700D02*
X12611300Y-10339700D01*
X12591300Y-10319700D02*
X12631300Y-10319700D01*
X12664000Y-10153400D02*
X12664000Y-10193400D01*
X12644000Y-10173400D02*
X12684000Y-10173400D01*
X12704900Y-9336690D02*
X12704900Y-9376690D01*
X12684900Y-9356690D02*
X12724900Y-9356690D01*
X12709100Y-10251000D02*
X12709100Y-10291000D01*
X12689100Y-10271000D02*
X12729100Y-10271000D01*
X12719300Y-10555200D02*
X12719300Y-10595200D01*
X12699300Y-10575200D02*
X12739300Y-10575200D01*
X12723300Y-10401000D02*
X12723300Y-10441000D01*
X12703300Y-10421000D02*
X12743300Y-10421000D01*
X12759300Y-9530460D02*
X12759300Y-9570460D01*
X12739300Y-9550460D02*
X12779300Y-9550460D01*
X12769700Y-10778700D02*
X12769700Y-10818700D01*
X12749700Y-10798700D02*
X12789700Y-10798700D01*
X12789300Y-10062800D02*
X12789300Y-10102800D01*
X12769300Y-10082800D02*
X12809300Y-10082800D01*
X12858600Y-10840400D02*
X12858600Y-10880400D01*
X12838600Y-10860400D02*
X12878600Y-10860400D01*
X12984700Y-9419590D02*
X12984700Y-9459590D01*
X12964700Y-9439590D02*
X13004700Y-9439590D01*
X13075700Y-10548800D02*
X13075700Y-10588800D01*
X13055700Y-10568800D02*
X13095700Y-10568800D01*
X13521600Y-9365770D02*
X13521600Y-9405770D01*
X13501600Y-9385770D02*
X13541600Y-9385770D01*
X13810000Y-9364800D02*
X13810000Y-9404800D01*
X13790000Y-9384800D02*
X13830000Y-9384800D01*
D14*
X10405231Y-9913981D02*
X10405231Y-9868019D01*
X10359269Y-9868019D01*
X10359269Y-9913981D01*
X10405231Y-9913981D01*
D11*
X10362250Y-9923500D02*
X10402250Y-9923500D01*
X10402250Y-9923500D02*
G75*
G03*
X10402250Y-9858500I0J32500D01*
G01*
X10402250Y-9858500D02*
X10362250Y-9858500D01*
X10362250Y-9858500D02*
G75*
G03*
X10362250Y-9923500I0J-32500D01*
G01*
D14*
X10405231Y-10397981D02*
X10405231Y-10352019D01*
X10359269Y-10352019D01*
X10359269Y-10397981D01*
X10405231Y-10397981D01*
D11*
X10362250Y-10407500D02*
X10402250Y-10407500D01*
X10402250Y-10407500D02*
G75*
G03*
X10402250Y-10342500I0J32500D01*
G01*
X10402250Y-10342500D02*
X10362250Y-10342500D01*
X10362250Y-10342500D02*
G75*
G03*
X10362250Y-10407500I0J-32500D01*
G01*
D15*
X10082250Y-9895000D02*
X10117250Y-9860000D01*
X10082250Y-9825000D01*
X10047250Y-9860000D01*
X10082250Y-9895000D01*
D11*
X10057250Y-9895000D02*
X10107250Y-9895000D01*
X10107250Y-9895000D02*
G75*
G03*
X10107250Y-9825000I0J35000D01*
G01*
X10107250Y-9825000D02*
X10057250Y-9825000D01*
X10057250Y-9825000D02*
G75*
G03*
X10057250Y-9895000I0J-35000D01*
G01*
D15*
X10082250Y-10441000D02*
X10117250Y-10406000D01*
X10082250Y-10371000D01*
X10047250Y-10406000D01*
X10082250Y-10441000D01*
D11*
X10057250Y-10441000D02*
X10107250Y-10441000D01*
X10107250Y-10441000D02*
G75*
G03*
X10107250Y-10371000I0J35000D01*
G01*
X10107250Y-10371000D02*
X10057250Y-10371000D01*
X10057250Y-10371000D02*
G75*
G03*
X10057250Y-10441000I0J-35000D01*
G01*
D10*
X10043000Y-11318000D02*
X10143000Y-11418000D01*
X10143000Y-11318000D02*
X10043000Y-11418000D01*
X10143000Y-11368000D02*
G75*
G03*
X10143000Y-11368000I-50000J0D01*
G01*
X10044000Y-8921000D02*
X10144000Y-9021000D01*
X10144000Y-8921000D02*
X10044000Y-9021000D01*
X10144000Y-8971000D02*
G75*
G03*
X10144000Y-8971000I-50000J0D01*
G01*
X10297000Y-11318000D02*
X10397000Y-11418000D01*
X10397000Y-11318000D02*
X10297000Y-11418000D01*
X10397000Y-11368000D02*
G75*
G03*
X10397000Y-11368000I-50000J0D01*
G01*
X10298000Y-8921000D02*
X10398000Y-9021000D01*
X10398000Y-8921000D02*
X10298000Y-9021000D01*
X10398000Y-8971000D02*
G75*
G03*
X10398000Y-8971000I-50000J0D01*
G01*
X10551000Y-11318000D02*
X10651000Y-11418000D01*
X10651000Y-11318000D02*
X10551000Y-11418000D01*
X10651000Y-11368000D02*
G75*
G03*
X10651000Y-11368000I-50000J0D01*
G01*
X10552000Y-8921000D02*
X10652000Y-9021000D01*
X10652000Y-8921000D02*
X10552000Y-9021000D01*
X10652000Y-8971000D02*
G75*
G03*
X10652000Y-8971000I-50000J0D01*
G01*
X10805000Y-11318000D02*
X10905000Y-11418000D01*
X10905000Y-11318000D02*
X10805000Y-11418000D01*
X10905000Y-11368000D02*
G75*
G03*
X10905000Y-11368000I-50000J0D01*
G01*
X10806000Y-8921000D02*
X10906000Y-9021000D01*
X10906000Y-8921000D02*
X10806000Y-9021000D01*
X10906000Y-8971000D02*
G75*
G03*
X10906000Y-8971000I-50000J0D01*
G01*
X11059000Y-11318000D02*
X11159000Y-11418000D01*
X11159000Y-11318000D02*
X11059000Y-11418000D01*
X11159000Y-11368000D02*
G75*
G03*
X11159000Y-11368000I-50000J0D01*
G01*
X11060000Y-8921000D02*
X11160000Y-9021000D01*
X11160000Y-8921000D02*
X11060000Y-9021000D01*
X11160000Y-8971000D02*
G75*
G03*
X11160000Y-8971000I-50000J0D01*
G01*
X11313000Y-11318000D02*
X11413000Y-11418000D01*
X11413000Y-11318000D02*
X11313000Y-11418000D01*
X11413000Y-11368000D02*
G75*
G03*
X11413000Y-11368000I-50000J0D01*
G01*
X11314000Y-8921000D02*
X11414000Y-9021000D01*
X11414000Y-8921000D02*
X11314000Y-9021000D01*
X11414000Y-8971000D02*
G75*
G03*
X11414000Y-8971000I-50000J0D01*
G01*
X11567000Y-11318000D02*
X11667000Y-11418000D01*
X11667000Y-11318000D02*
X11567000Y-11418000D01*
X11667000Y-11368000D02*
G75*
G03*
X11667000Y-11368000I-50000J0D01*
G01*
X11568000Y-8921000D02*
X11668000Y-9021000D01*
X11668000Y-8921000D02*
X11568000Y-9021000D01*
X11668000Y-8971000D02*
G75*
G03*
X11668000Y-8971000I-50000J0D01*
G01*
X11821000Y-11318000D02*
X11921000Y-11418000D01*
X11921000Y-11318000D02*
X11821000Y-11418000D01*
X11921000Y-11368000D02*
G75*
G03*
X11921000Y-11368000I-50000J0D01*
G01*
X11822000Y-8921000D02*
X11922000Y-9021000D01*
X11922000Y-8921000D02*
X11822000Y-9021000D01*
X11922000Y-8971000D02*
G75*
G03*
X11922000Y-8971000I-50000J0D01*
G01*
X12075000Y-11318000D02*
X12175000Y-11418000D01*
X12175000Y-11318000D02*
X12075000Y-11418000D01*
X12175000Y-11368000D02*
G75*
G03*
X12175000Y-11368000I-50000J0D01*
G01*
X12076000Y-8921000D02*
X12176000Y-9021000D01*
X12176000Y-8921000D02*
X12076000Y-9021000D01*
X12176000Y-8971000D02*
G75*
G03*
X12176000Y-8971000I-50000J0D01*
G01*
X12329000Y-11318000D02*
X12429000Y-11418000D01*
X12429000Y-11318000D02*
X12329000Y-11418000D01*
X12429000Y-11368000D02*
G75*
G03*
X12429000Y-11368000I-50000J0D01*
G01*
X12330000Y-8921000D02*
X12430000Y-9021000D01*
X12430000Y-8921000D02*
X12330000Y-9021000D01*
X12430000Y-8971000D02*
G75*
G03*
X12430000Y-8971000I-50000J0D01*
G01*
X12583000Y-11318000D02*
X12683000Y-11418000D01*
X12683000Y-11318000D02*
X12583000Y-11418000D01*
X12683000Y-11368000D02*
G75*
G03*
X12683000Y-11368000I-50000J0D01*
G01*
X12584000Y-8921000D02*
X12684000Y-9021000D01*
X12684000Y-8921000D02*
X12584000Y-9021000D01*
X12684000Y-8971000D02*
G75*
G03*
X12684000Y-8971000I-50000J0D01*
G01*
X12837000Y-11318000D02*
X12937000Y-11418000D01*
X12937000Y-11318000D02*
X12837000Y-11418000D01*
X12937000Y-11368000D02*
G75*
G03*
X12937000Y-11368000I-50000J0D01*
G01*
X12838000Y-8921000D02*
X12938000Y-9021000D01*
X12938000Y-8921000D02*
X12838000Y-9021000D01*
X12938000Y-8971000D02*
G75*
G03*
X12938000Y-8971000I-50000J0D01*
G01*
X13091000Y-11318000D02*
X13191000Y-11418000D01*
X13191000Y-11318000D02*
X13091000Y-11418000D01*
X13191000Y-11368000D02*
G75*
G03*
X13191000Y-11368000I-50000J0D01*
G01*
X13092000Y-8921000D02*
X13192000Y-9021000D01*
X13192000Y-8921000D02*
X13092000Y-9021000D01*
X13192000Y-8971000D02*
G75*
G03*
X13192000Y-8971000I-50000J0D01*
G01*
X13345000Y-11318000D02*
X13445000Y-11418000D01*
X13445000Y-11318000D02*
X13345000Y-11418000D01*
X13445000Y-11368000D02*
G75*
G03*
X13445000Y-11368000I-50000J0D01*
G01*
X13346000Y-8921000D02*
X13446000Y-9021000D01*
X13446000Y-8921000D02*
X13346000Y-9021000D01*
X13446000Y-8971000D02*
G75*
G03*
X13446000Y-8971000I-50000J0D01*
G01*
X13599000Y-11318000D02*
X13699000Y-11418000D01*
X13699000Y-11318000D02*
X13599000Y-11418000D01*
X13699000Y-11368000D02*
G75*
G03*
X13699000Y-11368000I-50000J0D01*
G01*
X13600000Y-8921000D02*
X13700000Y-9021000D01*
X13700000Y-8921000D02*
X13600000Y-9021000D01*
X13700000Y-8971000D02*
G75*
G03*
X13700000Y-8971000I-50000J0D01*
G01*
X13853000Y-11318000D02*
X13953000Y-11418000D01*
X13953000Y-11318000D02*
X13853000Y-11418000D01*
X13953000Y-11368000D02*
G75*
G03*
X13953000Y-11368000I-50000J0D01*
G01*
X13854000Y-8921000D02*
X13954000Y-9021000D01*
X13954000Y-8921000D02*
X13854000Y-9021000D01*
X13954000Y-8971000D02*
G75*
G03*
X13954000Y-8971000I-50000J0D01*
G01*
X14107000Y-11318000D02*
X14207000Y-11418000D01*
X14207000Y-11318000D02*
X14107000Y-11418000D01*
X14207000Y-11368000D02*
G75*
G03*
X14207000Y-11368000I-50000J0D01*
G01*
X14108000Y-8921000D02*
X14208000Y-9021000D01*
X14208000Y-8921000D02*
X14108000Y-9021000D01*
X14208000Y-8971000D02*
G75*
G03*
X14208000Y-8971000I-50000J0D01*
G01*
X14361000Y-11318000D02*
X14461000Y-11418000D01*
X14461000Y-11318000D02*
X14361000Y-11418000D01*
X14461000Y-11368000D02*
G75*
G03*
X14461000Y-11368000I-50000J0D01*
G01*
X14362000Y-8921000D02*
X14462000Y-9021000D01*
X14462000Y-8921000D02*
X14362000Y-9021000D01*
X14462000Y-8971000D02*
G75*
G03*
X14462000Y-8971000I-50000J0D01*
G01*
X14615000Y-11318000D02*
X14715000Y-11418000D01*
X14715000Y-11318000D02*
X14615000Y-11418000D01*
X14715000Y-11368000D02*
G75*
G03*
X14715000Y-11368000I-50000J0D01*
G01*
X14616000Y-8921000D02*
X14716000Y-9021000D01*
X14716000Y-8921000D02*
X14616000Y-9021000D01*
X14716000Y-8971000D02*
G75*
G03*
X14716000Y-8971000I-50000J0D01*
G01*
D11*
X10162777Y-11873484D02*
X10162777Y-11673484D01*
X10162777Y-11673484D02*
X10210396Y-11673484D01*
X10210396Y-11673484D02*
X10238967Y-11683008D01*
X10238967Y-11683008D02*
X10258015Y-11702055D01*
X10258015Y-11702055D02*
X10267539Y-11721103D01*
X10267539Y-11721103D02*
X10277063Y-11759198D01*
X10277063Y-11759198D02*
X10277063Y-11787769D01*
X10277063Y-11787769D02*
X10267539Y-11825865D01*
X10267539Y-11825865D02*
X10258015Y-11844912D01*
X10258015Y-11844912D02*
X10238967Y-11863960D01*
X10238967Y-11863960D02*
X10210396Y-11873484D01*
X10210396Y-11873484D02*
X10162777Y-11873484D01*
X10362777Y-11873484D02*
X10362777Y-11740150D01*
X10362777Y-11778246D02*
X10372301Y-11759198D01*
X10372301Y-11759198D02*
X10381824Y-11749674D01*
X10381824Y-11749674D02*
X10400872Y-11740150D01*
X10400872Y-11740150D02*
X10419920Y-11740150D01*
X10486586Y-11873484D02*
X10486586Y-11740150D01*
X10486586Y-11673484D02*
X10477063Y-11683008D01*
X10477063Y-11683008D02*
X10486586Y-11692531D01*
X10486586Y-11692531D02*
X10496110Y-11683008D01*
X10496110Y-11683008D02*
X10486586Y-11673484D01*
X10486586Y-11673484D02*
X10486586Y-11692531D01*
X10610396Y-11873484D02*
X10591348Y-11863960D01*
X10591348Y-11863960D02*
X10581824Y-11844912D01*
X10581824Y-11844912D02*
X10581824Y-11673484D01*
X10715158Y-11873484D02*
X10696110Y-11863960D01*
X10696110Y-11863960D02*
X10686586Y-11844912D01*
X10686586Y-11844912D02*
X10686586Y-11673484D01*
X10943729Y-11873484D02*
X10943729Y-11673484D01*
X10943729Y-11673484D02*
X11010396Y-11816341D01*
X11010396Y-11816341D02*
X11077063Y-11673484D01*
X11077063Y-11673484D02*
X11077063Y-11873484D01*
X11258015Y-11873484D02*
X11258015Y-11768722D01*
X11258015Y-11768722D02*
X11248491Y-11749674D01*
X11248491Y-11749674D02*
X11229443Y-11740150D01*
X11229443Y-11740150D02*
X11191348Y-11740150D01*
X11191348Y-11740150D02*
X11172301Y-11749674D01*
X11258015Y-11863960D02*
X11238967Y-11873484D01*
X11238967Y-11873484D02*
X11191348Y-11873484D01*
X11191348Y-11873484D02*
X11172301Y-11863960D01*
X11172301Y-11863960D02*
X11162777Y-11844912D01*
X11162777Y-11844912D02*
X11162777Y-11825865D01*
X11162777Y-11825865D02*
X11172301Y-11806817D01*
X11172301Y-11806817D02*
X11191348Y-11797293D01*
X11191348Y-11797293D02*
X11238967Y-11797293D01*
X11238967Y-11797293D02*
X11258015Y-11787769D01*
X11353253Y-11740150D02*
X11353253Y-11940150D01*
X11353253Y-11749674D02*
X11372301Y-11740150D01*
X11372301Y-11740150D02*
X11410396Y-11740150D01*
X11410396Y-11740150D02*
X11429443Y-11749674D01*
X11429443Y-11749674D02*
X11438967Y-11759198D01*
X11438967Y-11759198D02*
X11448491Y-11778246D01*
X11448491Y-11778246D02*
X11448491Y-11835388D01*
X11448491Y-11835388D02*
X11438967Y-11854436D01*
X11438967Y-11854436D02*
X11429443Y-11863960D01*
X11429443Y-11863960D02*
X11410396Y-11873484D01*
X11410396Y-11873484D02*
X11372301Y-11873484D01*
X11372301Y-11873484D02*
X11353253Y-11863960D01*
X11534205Y-11854436D02*
X11543729Y-11863960D01*
X11543729Y-11863960D02*
X11534205Y-11873484D01*
X11534205Y-11873484D02*
X11524682Y-11863960D01*
X11524682Y-11863960D02*
X11534205Y-11854436D01*
X11534205Y-11854436D02*
X11534205Y-11873484D01*
X11534205Y-11749674D02*
X11543729Y-11759198D01*
X11543729Y-11759198D02*
X11534205Y-11768722D01*
X11534205Y-11768722D02*
X11524682Y-11759198D01*
X11524682Y-11759198D02*
X11534205Y-11749674D01*
X11534205Y-11749674D02*
X11534205Y-11768722D01*
D12*
X9882000Y-12192000D02*
X9902000Y-12212000D01*
X9902000Y-12192000D02*
X9882000Y-12212000D01*
D11*
X10200872Y-12093484D02*
X10219920Y-12093484D01*
X10219920Y-12093484D02*
X10238967Y-12103008D01*
X10238967Y-12103008D02*
X10248491Y-12112531D01*
X10248491Y-12112531D02*
X10258015Y-12131579D01*
X10258015Y-12131579D02*
X10267539Y-12169674D01*
X10267539Y-12169674D02*
X10267539Y-12217293D01*
X10267539Y-12217293D02*
X10258015Y-12255388D01*
X10258015Y-12255388D02*
X10248491Y-12274436D01*
X10248491Y-12274436D02*
X10238967Y-12283960D01*
X10238967Y-12283960D02*
X10219920Y-12293484D01*
X10219920Y-12293484D02*
X10200872Y-12293484D01*
X10200872Y-12293484D02*
X10181824Y-12283960D01*
X10181824Y-12283960D02*
X10172301Y-12274436D01*
X10172301Y-12274436D02*
X10162777Y-12255388D01*
X10162777Y-12255388D02*
X10153253Y-12217293D01*
X10153253Y-12217293D02*
X10153253Y-12169674D01*
X10153253Y-12169674D02*
X10162777Y-12131579D01*
X10162777Y-12131579D02*
X10172301Y-12112531D01*
X10172301Y-12112531D02*
X10181824Y-12103008D01*
X10181824Y-12103008D02*
X10200872Y-12093484D01*
X10353253Y-12274436D02*
X10362777Y-12283960D01*
X10362777Y-12283960D02*
X10353253Y-12293484D01*
X10353253Y-12293484D02*
X10343729Y-12283960D01*
X10343729Y-12283960D02*
X10353253Y-12274436D01*
X10353253Y-12274436D02*
X10353253Y-12293484D01*
X10438967Y-12112531D02*
X10448491Y-12103008D01*
X10448491Y-12103008D02*
X10467539Y-12093484D01*
X10467539Y-12093484D02*
X10515158Y-12093484D01*
X10515158Y-12093484D02*
X10534205Y-12103008D01*
X10534205Y-12103008D02*
X10543729Y-12112531D01*
X10543729Y-12112531D02*
X10553253Y-12131579D01*
X10553253Y-12131579D02*
X10553253Y-12150627D01*
X10553253Y-12150627D02*
X10543729Y-12179198D01*
X10543729Y-12179198D02*
X10429444Y-12293484D01*
X10429444Y-12293484D02*
X10553253Y-12293484D01*
X10677063Y-12093484D02*
X10696110Y-12093484D01*
X10696110Y-12093484D02*
X10715158Y-12103008D01*
X10715158Y-12103008D02*
X10724682Y-12112531D01*
X10724682Y-12112531D02*
X10734205Y-12131579D01*
X10734205Y-12131579D02*
X10743729Y-12169674D01*
X10743729Y-12169674D02*
X10743729Y-12217293D01*
X10743729Y-12217293D02*
X10734205Y-12255388D01*
X10734205Y-12255388D02*
X10724682Y-12274436D01*
X10724682Y-12274436D02*
X10715158Y-12283960D01*
X10715158Y-12283960D02*
X10696110Y-12293484D01*
X10696110Y-12293484D02*
X10677063Y-12293484D01*
X10677063Y-12293484D02*
X10658015Y-12283960D01*
X10658015Y-12283960D02*
X10648491Y-12274436D01*
X10648491Y-12274436D02*
X10638967Y-12255388D01*
X10638967Y-12255388D02*
X10629444Y-12217293D01*
X10629444Y-12217293D02*
X10629444Y-12169674D01*
X10629444Y-12169674D02*
X10638967Y-12131579D01*
X10638967Y-12131579D02*
X10648491Y-12112531D01*
X10648491Y-12112531D02*
X10658015Y-12103008D01*
X10658015Y-12103008D02*
X10677063Y-12093484D01*
X10867539Y-12093484D02*
X10886586Y-12093484D01*
X10886586Y-12093484D02*
X10905634Y-12103008D01*
X10905634Y-12103008D02*
X10915158Y-12112531D01*
X10915158Y-12112531D02*
X10924682Y-12131579D01*
X10924682Y-12131579D02*
X10934205Y-12169674D01*
X10934205Y-12169674D02*
X10934205Y-12217293D01*
X10934205Y-12217293D02*
X10924682Y-12255388D01*
X10924682Y-12255388D02*
X10915158Y-12274436D01*
X10915158Y-12274436D02*
X10905634Y-12283960D01*
X10905634Y-12283960D02*
X10886586Y-12293484D01*
X10886586Y-12293484D02*
X10867539Y-12293484D01*
X10867539Y-12293484D02*
X10848491Y-12283960D01*
X10848491Y-12283960D02*
X10838967Y-12274436D01*
X10838967Y-12274436D02*
X10829444Y-12255388D01*
X10829444Y-12255388D02*
X10819920Y-12217293D01*
X10819920Y-12217293D02*
X10819920Y-12169674D01*
X10819920Y-12169674D02*
X10829444Y-12131579D01*
X10829444Y-12131579D02*
X10838967Y-12112531D01*
X10838967Y-12112531D02*
X10848491Y-12103008D01*
X10848491Y-12103008D02*
X10867539Y-12093484D01*
X11019920Y-12293484D02*
X11019920Y-12160150D01*
X11019920Y-12179198D02*
X11029444Y-12169674D01*
X11029444Y-12169674D02*
X11048491Y-12160150D01*
X11048491Y-12160150D02*
X11077063Y-12160150D01*
X11077063Y-12160150D02*
X11096110Y-12169674D01*
X11096110Y-12169674D02*
X11105634Y-12188722D01*
X11105634Y-12188722D02*
X11105634Y-12293484D01*
X11105634Y-12188722D02*
X11115158Y-12169674D01*
X11115158Y-12169674D02*
X11134205Y-12160150D01*
X11134205Y-12160150D02*
X11162777Y-12160150D01*
X11162777Y-12160150D02*
X11181825Y-12169674D01*
X11181825Y-12169674D02*
X11191348Y-12188722D01*
X11191348Y-12188722D02*
X11191348Y-12293484D01*
X11286586Y-12293484D02*
X11286586Y-12160150D01*
X11286586Y-12179198D02*
X11296110Y-12169674D01*
X11296110Y-12169674D02*
X11315158Y-12160150D01*
X11315158Y-12160150D02*
X11343729Y-12160150D01*
X11343729Y-12160150D02*
X11362777Y-12169674D01*
X11362777Y-12169674D02*
X11372301Y-12188722D01*
X11372301Y-12188722D02*
X11372301Y-12293484D01*
X11372301Y-12188722D02*
X11381824Y-12169674D01*
X11381824Y-12169674D02*
X11400872Y-12160150D01*
X11400872Y-12160150D02*
X11429443Y-12160150D01*
X11429443Y-12160150D02*
X11448491Y-12169674D01*
X11448491Y-12169674D02*
X11458015Y-12188722D01*
X11458015Y-12188722D02*
X11458015Y-12293484D01*
X11848491Y-12083960D02*
X11677063Y-12341103D01*
X12105634Y-12093484D02*
X12124682Y-12093484D01*
X12124682Y-12093484D02*
X12143729Y-12103008D01*
X12143729Y-12103008D02*
X12153253Y-12112531D01*
X12153253Y-12112531D02*
X12162777Y-12131579D01*
X12162777Y-12131579D02*
X12172301Y-12169674D01*
X12172301Y-12169674D02*
X12172301Y-12217293D01*
X12172301Y-12217293D02*
X12162777Y-12255388D01*
X12162777Y-12255388D02*
X12153253Y-12274436D01*
X12153253Y-12274436D02*
X12143729Y-12283960D01*
X12143729Y-12283960D02*
X12124682Y-12293484D01*
X12124682Y-12293484D02*
X12105634Y-12293484D01*
X12105634Y-12293484D02*
X12086586Y-12283960D01*
X12086586Y-12283960D02*
X12077063Y-12274436D01*
X12077063Y-12274436D02*
X12067539Y-12255388D01*
X12067539Y-12255388D02*
X12058015Y-12217293D01*
X12058015Y-12217293D02*
X12058015Y-12169674D01*
X12058015Y-12169674D02*
X12067539Y-12131579D01*
X12067539Y-12131579D02*
X12077063Y-12112531D01*
X12077063Y-12112531D02*
X12086586Y-12103008D01*
X12086586Y-12103008D02*
X12105634Y-12093484D01*
X12258015Y-12274436D02*
X12267539Y-12283960D01*
X12267539Y-12283960D02*
X12258015Y-12293484D01*
X12258015Y-12293484D02*
X12248491Y-12283960D01*
X12248491Y-12283960D02*
X12258015Y-12274436D01*
X12258015Y-12274436D02*
X12258015Y-12293484D01*
X12391348Y-12093484D02*
X12410396Y-12093484D01*
X12410396Y-12093484D02*
X12429444Y-12103008D01*
X12429444Y-12103008D02*
X12438967Y-12112531D01*
X12438967Y-12112531D02*
X12448491Y-12131579D01*
X12448491Y-12131579D02*
X12458015Y-12169674D01*
X12458015Y-12169674D02*
X12458015Y-12217293D01*
X12458015Y-12217293D02*
X12448491Y-12255388D01*
X12448491Y-12255388D02*
X12438967Y-12274436D01*
X12438967Y-12274436D02*
X12429444Y-12283960D01*
X12429444Y-12283960D02*
X12410396Y-12293484D01*
X12410396Y-12293484D02*
X12391348Y-12293484D01*
X12391348Y-12293484D02*
X12372301Y-12283960D01*
X12372301Y-12283960D02*
X12362777Y-12274436D01*
X12362777Y-12274436D02*
X12353253Y-12255388D01*
X12353253Y-12255388D02*
X12343729Y-12217293D01*
X12343729Y-12217293D02*
X12343729Y-12169674D01*
X12343729Y-12169674D02*
X12353253Y-12131579D01*
X12353253Y-12131579D02*
X12362777Y-12112531D01*
X12362777Y-12112531D02*
X12372301Y-12103008D01*
X12372301Y-12103008D02*
X12391348Y-12093484D01*
X12581825Y-12093484D02*
X12600872Y-12093484D01*
X12600872Y-12093484D02*
X12619920Y-12103008D01*
X12619920Y-12103008D02*
X12629444Y-12112531D01*
X12629444Y-12112531D02*
X12638967Y-12131579D01*
X12638967Y-12131579D02*
X12648491Y-12169674D01*
X12648491Y-12169674D02*
X12648491Y-12217293D01*
X12648491Y-12217293D02*
X12638967Y-12255388D01*
X12638967Y-12255388D02*
X12629444Y-12274436D01*
X12629444Y-12274436D02*
X12619920Y-12283960D01*
X12619920Y-12283960D02*
X12600872Y-12293484D01*
X12600872Y-12293484D02*
X12581825Y-12293484D01*
X12581825Y-12293484D02*
X12562777Y-12283960D01*
X12562777Y-12283960D02*
X12553253Y-12274436D01*
X12553253Y-12274436D02*
X12543729Y-12255388D01*
X12543729Y-12255388D02*
X12534206Y-12217293D01*
X12534206Y-12217293D02*
X12534206Y-12169674D01*
X12534206Y-12169674D02*
X12543729Y-12131579D01*
X12543729Y-12131579D02*
X12553253Y-12112531D01*
X12553253Y-12112531D02*
X12562777Y-12103008D01*
X12562777Y-12103008D02*
X12581825Y-12093484D01*
X12715158Y-12093484D02*
X12848491Y-12093484D01*
X12848491Y-12093484D02*
X12762777Y-12293484D01*
X12934206Y-12293484D02*
X12972301Y-12293484D01*
X12972301Y-12293484D02*
X12991348Y-12283960D01*
X12991348Y-12283960D02*
X13000872Y-12274436D01*
X13000872Y-12274436D02*
X13019920Y-12245865D01*
X13019920Y-12245865D02*
X13029444Y-12207769D01*
X13029444Y-12207769D02*
X13029444Y-12131579D01*
X13029444Y-12131579D02*
X13019920Y-12112531D01*
X13019920Y-12112531D02*
X13010396Y-12103008D01*
X13010396Y-12103008D02*
X12991348Y-12093484D01*
X12991348Y-12093484D02*
X12953253Y-12093484D01*
X12953253Y-12093484D02*
X12934206Y-12103008D01*
X12934206Y-12103008D02*
X12924682Y-12112531D01*
X12924682Y-12112531D02*
X12915158Y-12131579D01*
X12915158Y-12131579D02*
X12915158Y-12179198D01*
X12915158Y-12179198D02*
X12924682Y-12198246D01*
X12924682Y-12198246D02*
X12934206Y-12207769D01*
X12934206Y-12207769D02*
X12953253Y-12217293D01*
X12953253Y-12217293D02*
X12991348Y-12217293D01*
X12991348Y-12217293D02*
X13010396Y-12207769D01*
X13010396Y-12207769D02*
X13019920Y-12198246D01*
X13019920Y-12198246D02*
X13029444Y-12179198D01*
X13105634Y-12093484D02*
X13105634Y-12131579D01*
X13181825Y-12093484D02*
X13181825Y-12131579D01*
X13477063Y-12369674D02*
X13467539Y-12360150D01*
X13467539Y-12360150D02*
X13448491Y-12331579D01*
X13448491Y-12331579D02*
X13438968Y-12312531D01*
X13438968Y-12312531D02*
X13429444Y-12283960D01*
X13429444Y-12283960D02*
X13419920Y-12236341D01*
X13419920Y-12236341D02*
X13419920Y-12198246D01*
X13419920Y-12198246D02*
X13429444Y-12150627D01*
X13429444Y-12150627D02*
X13438968Y-12122055D01*
X13438968Y-12122055D02*
X13448491Y-12103008D01*
X13448491Y-12103008D02*
X13467539Y-12074436D01*
X13467539Y-12074436D02*
X13477063Y-12064912D01*
X13658015Y-12293484D02*
X13543729Y-12293484D01*
X13600872Y-12293484D02*
X13600872Y-12093484D01*
X13600872Y-12093484D02*
X13581825Y-12122055D01*
X13581825Y-12122055D02*
X13562777Y-12141103D01*
X13562777Y-12141103D02*
X13543729Y-12150627D01*
X13896110Y-12293484D02*
X13896110Y-12093484D01*
X13981825Y-12293484D02*
X13981825Y-12188722D01*
X13981825Y-12188722D02*
X13972301Y-12169674D01*
X13972301Y-12169674D02*
X13953253Y-12160150D01*
X13953253Y-12160150D02*
X13924682Y-12160150D01*
X13924682Y-12160150D02*
X13905634Y-12169674D01*
X13905634Y-12169674D02*
X13896110Y-12179198D01*
X14105634Y-12293484D02*
X14086587Y-12283960D01*
X14086587Y-12283960D02*
X14077063Y-12274436D01*
X14077063Y-12274436D02*
X14067539Y-12255388D01*
X14067539Y-12255388D02*
X14067539Y-12198246D01*
X14067539Y-12198246D02*
X14077063Y-12179198D01*
X14077063Y-12179198D02*
X14086587Y-12169674D01*
X14086587Y-12169674D02*
X14105634Y-12160150D01*
X14105634Y-12160150D02*
X14134206Y-12160150D01*
X14134206Y-12160150D02*
X14153253Y-12169674D01*
X14153253Y-12169674D02*
X14162777Y-12179198D01*
X14162777Y-12179198D02*
X14172301Y-12198246D01*
X14172301Y-12198246D02*
X14172301Y-12255388D01*
X14172301Y-12255388D02*
X14162777Y-12274436D01*
X14162777Y-12274436D02*
X14153253Y-12283960D01*
X14153253Y-12283960D02*
X14134206Y-12293484D01*
X14134206Y-12293484D02*
X14105634Y-12293484D01*
X14286587Y-12293484D02*
X14267539Y-12283960D01*
X14267539Y-12283960D02*
X14258015Y-12264912D01*
X14258015Y-12264912D02*
X14258015Y-12093484D01*
X14438968Y-12283960D02*
X14419920Y-12293484D01*
X14419920Y-12293484D02*
X14381825Y-12293484D01*
X14381825Y-12293484D02*
X14362777Y-12283960D01*
X14362777Y-12283960D02*
X14353253Y-12264912D01*
X14353253Y-12264912D02*
X14353253Y-12188722D01*
X14353253Y-12188722D02*
X14362777Y-12169674D01*
X14362777Y-12169674D02*
X14381825Y-12160150D01*
X14381825Y-12160150D02*
X14419920Y-12160150D01*
X14419920Y-12160150D02*
X14438968Y-12169674D01*
X14438968Y-12169674D02*
X14448491Y-12188722D01*
X14448491Y-12188722D02*
X14448491Y-12207769D01*
X14448491Y-12207769D02*
X14353253Y-12226817D01*
X14515158Y-12369674D02*
X14524682Y-12360150D01*
X14524682Y-12360150D02*
X14543730Y-12331579D01*
X14543730Y-12331579D02*
X14553253Y-12312531D01*
X14553253Y-12312531D02*
X14562777Y-12283960D01*
X14562777Y-12283960D02*
X14572301Y-12236341D01*
X14572301Y-12236341D02*
X14572301Y-12198246D01*
X14572301Y-12198246D02*
X14562777Y-12150627D01*
X14562777Y-12150627D02*
X14553253Y-12122055D01*
X14553253Y-12122055D02*
X14543730Y-12103008D01*
X14543730Y-12103008D02*
X14524682Y-12074436D01*
X14524682Y-12074436D02*
X14515158Y-12064912D01*
D12*
X9902000Y-12466000D02*
G75*
G03*
X9902000Y-12466000I-10000J0D01*
G01*
D11*
X10200872Y-12357484D02*
X10219920Y-12357484D01*
X10219920Y-12357484D02*
X10238967Y-12367008D01*
X10238967Y-12367008D02*
X10248491Y-12376531D01*
X10248491Y-12376531D02*
X10258015Y-12395579D01*
X10258015Y-12395579D02*
X10267539Y-12433674D01*
X10267539Y-12433674D02*
X10267539Y-12481293D01*
X10267539Y-12481293D02*
X10258015Y-12519388D01*
X10258015Y-12519388D02*
X10248491Y-12538436D01*
X10248491Y-12538436D02*
X10238967Y-12547960D01*
X10238967Y-12547960D02*
X10219920Y-12557484D01*
X10219920Y-12557484D02*
X10200872Y-12557484D01*
X10200872Y-12557484D02*
X10181824Y-12547960D01*
X10181824Y-12547960D02*
X10172301Y-12538436D01*
X10172301Y-12538436D02*
X10162777Y-12519388D01*
X10162777Y-12519388D02*
X10153253Y-12481293D01*
X10153253Y-12481293D02*
X10153253Y-12433674D01*
X10153253Y-12433674D02*
X10162777Y-12395579D01*
X10162777Y-12395579D02*
X10172301Y-12376531D01*
X10172301Y-12376531D02*
X10181824Y-12367008D01*
X10181824Y-12367008D02*
X10200872Y-12357484D01*
X10353253Y-12538436D02*
X10362777Y-12547960D01*
X10362777Y-12547960D02*
X10353253Y-12557484D01*
X10353253Y-12557484D02*
X10343729Y-12547960D01*
X10343729Y-12547960D02*
X10353253Y-12538436D01*
X10353253Y-12538436D02*
X10353253Y-12557484D01*
X10438967Y-12376531D02*
X10448491Y-12367008D01*
X10448491Y-12367008D02*
X10467539Y-12357484D01*
X10467539Y-12357484D02*
X10515158Y-12357484D01*
X10515158Y-12357484D02*
X10534205Y-12367008D01*
X10534205Y-12367008D02*
X10543729Y-12376531D01*
X10543729Y-12376531D02*
X10553253Y-12395579D01*
X10553253Y-12395579D02*
X10553253Y-12414627D01*
X10553253Y-12414627D02*
X10543729Y-12443198D01*
X10543729Y-12443198D02*
X10429444Y-12557484D01*
X10429444Y-12557484D02*
X10553253Y-12557484D01*
X10677063Y-12357484D02*
X10696110Y-12357484D01*
X10696110Y-12357484D02*
X10715158Y-12367008D01*
X10715158Y-12367008D02*
X10724682Y-12376531D01*
X10724682Y-12376531D02*
X10734205Y-12395579D01*
X10734205Y-12395579D02*
X10743729Y-12433674D01*
X10743729Y-12433674D02*
X10743729Y-12481293D01*
X10743729Y-12481293D02*
X10734205Y-12519388D01*
X10734205Y-12519388D02*
X10724682Y-12538436D01*
X10724682Y-12538436D02*
X10715158Y-12547960D01*
X10715158Y-12547960D02*
X10696110Y-12557484D01*
X10696110Y-12557484D02*
X10677063Y-12557484D01*
X10677063Y-12557484D02*
X10658015Y-12547960D01*
X10658015Y-12547960D02*
X10648491Y-12538436D01*
X10648491Y-12538436D02*
X10638967Y-12519388D01*
X10638967Y-12519388D02*
X10629444Y-12481293D01*
X10629444Y-12481293D02*
X10629444Y-12433674D01*
X10629444Y-12433674D02*
X10638967Y-12395579D01*
X10638967Y-12395579D02*
X10648491Y-12376531D01*
X10648491Y-12376531D02*
X10658015Y-12367008D01*
X10658015Y-12367008D02*
X10677063Y-12357484D01*
X10867539Y-12357484D02*
X10886586Y-12357484D01*
X10886586Y-12357484D02*
X10905634Y-12367008D01*
X10905634Y-12367008D02*
X10915158Y-12376531D01*
X10915158Y-12376531D02*
X10924682Y-12395579D01*
X10924682Y-12395579D02*
X10934205Y-12433674D01*
X10934205Y-12433674D02*
X10934205Y-12481293D01*
X10934205Y-12481293D02*
X10924682Y-12519388D01*
X10924682Y-12519388D02*
X10915158Y-12538436D01*
X10915158Y-12538436D02*
X10905634Y-12547960D01*
X10905634Y-12547960D02*
X10886586Y-12557484D01*
X10886586Y-12557484D02*
X10867539Y-12557484D01*
X10867539Y-12557484D02*
X10848491Y-12547960D01*
X10848491Y-12547960D02*
X10838967Y-12538436D01*
X10838967Y-12538436D02*
X10829444Y-12519388D01*
X10829444Y-12519388D02*
X10819920Y-12481293D01*
X10819920Y-12481293D02*
X10819920Y-12433674D01*
X10819920Y-12433674D02*
X10829444Y-12395579D01*
X10829444Y-12395579D02*
X10838967Y-12376531D01*
X10838967Y-12376531D02*
X10848491Y-12367008D01*
X10848491Y-12367008D02*
X10867539Y-12357484D01*
X11019920Y-12557484D02*
X11019920Y-12424150D01*
X11019920Y-12443198D02*
X11029444Y-12433674D01*
X11029444Y-12433674D02*
X11048491Y-12424150D01*
X11048491Y-12424150D02*
X11077063Y-12424150D01*
X11077063Y-12424150D02*
X11096110Y-12433674D01*
X11096110Y-12433674D02*
X11105634Y-12452722D01*
X11105634Y-12452722D02*
X11105634Y-12557484D01*
X11105634Y-12452722D02*
X11115158Y-12433674D01*
X11115158Y-12433674D02*
X11134205Y-12424150D01*
X11134205Y-12424150D02*
X11162777Y-12424150D01*
X11162777Y-12424150D02*
X11181825Y-12433674D01*
X11181825Y-12433674D02*
X11191348Y-12452722D01*
X11191348Y-12452722D02*
X11191348Y-12557484D01*
X11286586Y-12557484D02*
X11286586Y-12424150D01*
X11286586Y-12443198D02*
X11296110Y-12433674D01*
X11296110Y-12433674D02*
X11315158Y-12424150D01*
X11315158Y-12424150D02*
X11343729Y-12424150D01*
X11343729Y-12424150D02*
X11362777Y-12433674D01*
X11362777Y-12433674D02*
X11372301Y-12452722D01*
X11372301Y-12452722D02*
X11372301Y-12557484D01*
X11372301Y-12452722D02*
X11381824Y-12433674D01*
X11381824Y-12433674D02*
X11400872Y-12424150D01*
X11400872Y-12424150D02*
X11429443Y-12424150D01*
X11429443Y-12424150D02*
X11448491Y-12433674D01*
X11448491Y-12433674D02*
X11458015Y-12452722D01*
X11458015Y-12452722D02*
X11458015Y-12557484D01*
X11848491Y-12347960D02*
X11677063Y-12605103D01*
X12105634Y-12357484D02*
X12124682Y-12357484D01*
X12124682Y-12357484D02*
X12143729Y-12367008D01*
X12143729Y-12367008D02*
X12153253Y-12376531D01*
X12153253Y-12376531D02*
X12162777Y-12395579D01*
X12162777Y-12395579D02*
X12172301Y-12433674D01*
X12172301Y-12433674D02*
X12172301Y-12481293D01*
X12172301Y-12481293D02*
X12162777Y-12519388D01*
X12162777Y-12519388D02*
X12153253Y-12538436D01*
X12153253Y-12538436D02*
X12143729Y-12547960D01*
X12143729Y-12547960D02*
X12124682Y-12557484D01*
X12124682Y-12557484D02*
X12105634Y-12557484D01*
X12105634Y-12557484D02*
X12086586Y-12547960D01*
X12086586Y-12547960D02*
X12077063Y-12538436D01*
X12077063Y-12538436D02*
X12067539Y-12519388D01*
X12067539Y-12519388D02*
X12058015Y-12481293D01*
X12058015Y-12481293D02*
X12058015Y-12433674D01*
X12058015Y-12433674D02*
X12067539Y-12395579D01*
X12067539Y-12395579D02*
X12077063Y-12376531D01*
X12077063Y-12376531D02*
X12086586Y-12367008D01*
X12086586Y-12367008D02*
X12105634Y-12357484D01*
X12258015Y-12538436D02*
X12267539Y-12547960D01*
X12267539Y-12547960D02*
X12258015Y-12557484D01*
X12258015Y-12557484D02*
X12248491Y-12547960D01*
X12248491Y-12547960D02*
X12258015Y-12538436D01*
X12258015Y-12538436D02*
X12258015Y-12557484D01*
X12391348Y-12357484D02*
X12410396Y-12357484D01*
X12410396Y-12357484D02*
X12429444Y-12367008D01*
X12429444Y-12367008D02*
X12438967Y-12376531D01*
X12438967Y-12376531D02*
X12448491Y-12395579D01*
X12448491Y-12395579D02*
X12458015Y-12433674D01*
X12458015Y-12433674D02*
X12458015Y-12481293D01*
X12458015Y-12481293D02*
X12448491Y-12519388D01*
X12448491Y-12519388D02*
X12438967Y-12538436D01*
X12438967Y-12538436D02*
X12429444Y-12547960D01*
X12429444Y-12547960D02*
X12410396Y-12557484D01*
X12410396Y-12557484D02*
X12391348Y-12557484D01*
X12391348Y-12557484D02*
X12372301Y-12547960D01*
X12372301Y-12547960D02*
X12362777Y-12538436D01*
X12362777Y-12538436D02*
X12353253Y-12519388D01*
X12353253Y-12519388D02*
X12343729Y-12481293D01*
X12343729Y-12481293D02*
X12343729Y-12433674D01*
X12343729Y-12433674D02*
X12353253Y-12395579D01*
X12353253Y-12395579D02*
X12362777Y-12376531D01*
X12362777Y-12376531D02*
X12372301Y-12367008D01*
X12372301Y-12367008D02*
X12391348Y-12357484D01*
X12581825Y-12357484D02*
X12600872Y-12357484D01*
X12600872Y-12357484D02*
X12619920Y-12367008D01*
X12619920Y-12367008D02*
X12629444Y-12376531D01*
X12629444Y-12376531D02*
X12638967Y-12395579D01*
X12638967Y-12395579D02*
X12648491Y-12433674D01*
X12648491Y-12433674D02*
X12648491Y-12481293D01*
X12648491Y-12481293D02*
X12638967Y-12519388D01*
X12638967Y-12519388D02*
X12629444Y-12538436D01*
X12629444Y-12538436D02*
X12619920Y-12547960D01*
X12619920Y-12547960D02*
X12600872Y-12557484D01*
X12600872Y-12557484D02*
X12581825Y-12557484D01*
X12581825Y-12557484D02*
X12562777Y-12547960D01*
X12562777Y-12547960D02*
X12553253Y-12538436D01*
X12553253Y-12538436D02*
X12543729Y-12519388D01*
X12543729Y-12519388D02*
X12534206Y-12481293D01*
X12534206Y-12481293D02*
X12534206Y-12433674D01*
X12534206Y-12433674D02*
X12543729Y-12395579D01*
X12543729Y-12395579D02*
X12553253Y-12376531D01*
X12553253Y-12376531D02*
X12562777Y-12367008D01*
X12562777Y-12367008D02*
X12581825Y-12357484D01*
X12715158Y-12357484D02*
X12848491Y-12357484D01*
X12848491Y-12357484D02*
X12762777Y-12557484D01*
X12934206Y-12557484D02*
X12972301Y-12557484D01*
X12972301Y-12557484D02*
X12991348Y-12547960D01*
X12991348Y-12547960D02*
X13000872Y-12538436D01*
X13000872Y-12538436D02*
X13019920Y-12509865D01*
X13019920Y-12509865D02*
X13029444Y-12471769D01*
X13029444Y-12471769D02*
X13029444Y-12395579D01*
X13029444Y-12395579D02*
X13019920Y-12376531D01*
X13019920Y-12376531D02*
X13010396Y-12367008D01*
X13010396Y-12367008D02*
X12991348Y-12357484D01*
X12991348Y-12357484D02*
X12953253Y-12357484D01*
X12953253Y-12357484D02*
X12934206Y-12367008D01*
X12934206Y-12367008D02*
X12924682Y-12376531D01*
X12924682Y-12376531D02*
X12915158Y-12395579D01*
X12915158Y-12395579D02*
X12915158Y-12443198D01*
X12915158Y-12443198D02*
X12924682Y-12462246D01*
X12924682Y-12462246D02*
X12934206Y-12471769D01*
X12934206Y-12471769D02*
X12953253Y-12481293D01*
X12953253Y-12481293D02*
X12991348Y-12481293D01*
X12991348Y-12481293D02*
X13010396Y-12471769D01*
X13010396Y-12471769D02*
X13019920Y-12462246D01*
X13019920Y-12462246D02*
X13029444Y-12443198D01*
X13105634Y-12357484D02*
X13105634Y-12395579D01*
X13181825Y-12357484D02*
X13181825Y-12395579D01*
X13477063Y-12633674D02*
X13467539Y-12624150D01*
X13467539Y-12624150D02*
X13448491Y-12595579D01*
X13448491Y-12595579D02*
X13438968Y-12576531D01*
X13438968Y-12576531D02*
X13429444Y-12547960D01*
X13429444Y-12547960D02*
X13419920Y-12500341D01*
X13419920Y-12500341D02*
X13419920Y-12462246D01*
X13419920Y-12462246D02*
X13429444Y-12414627D01*
X13429444Y-12414627D02*
X13438968Y-12386055D01*
X13438968Y-12386055D02*
X13448491Y-12367008D01*
X13448491Y-12367008D02*
X13467539Y-12338436D01*
X13467539Y-12338436D02*
X13477063Y-12328912D01*
X13658015Y-12557484D02*
X13543729Y-12557484D01*
X13600872Y-12557484D02*
X13600872Y-12357484D01*
X13600872Y-12357484D02*
X13581825Y-12386055D01*
X13581825Y-12386055D02*
X13562777Y-12405103D01*
X13562777Y-12405103D02*
X13543729Y-12414627D01*
X13734206Y-12376531D02*
X13743729Y-12367008D01*
X13743729Y-12367008D02*
X13762777Y-12357484D01*
X13762777Y-12357484D02*
X13810396Y-12357484D01*
X13810396Y-12357484D02*
X13829444Y-12367008D01*
X13829444Y-12367008D02*
X13838968Y-12376531D01*
X13838968Y-12376531D02*
X13848491Y-12395579D01*
X13848491Y-12395579D02*
X13848491Y-12414627D01*
X13848491Y-12414627D02*
X13838968Y-12443198D01*
X13838968Y-12443198D02*
X13724682Y-12557484D01*
X13724682Y-12557484D02*
X13848491Y-12557484D01*
X14086587Y-12557484D02*
X14086587Y-12357484D01*
X14172301Y-12557484D02*
X14172301Y-12452722D01*
X14172301Y-12452722D02*
X14162777Y-12433674D01*
X14162777Y-12433674D02*
X14143730Y-12424150D01*
X14143730Y-12424150D02*
X14115158Y-12424150D01*
X14115158Y-12424150D02*
X14096110Y-12433674D01*
X14096110Y-12433674D02*
X14086587Y-12443198D01*
X14296110Y-12557484D02*
X14277063Y-12547960D01*
X14277063Y-12547960D02*
X14267539Y-12538436D01*
X14267539Y-12538436D02*
X14258015Y-12519388D01*
X14258015Y-12519388D02*
X14258015Y-12462246D01*
X14258015Y-12462246D02*
X14267539Y-12443198D01*
X14267539Y-12443198D02*
X14277063Y-12433674D01*
X14277063Y-12433674D02*
X14296110Y-12424150D01*
X14296110Y-12424150D02*
X14324682Y-12424150D01*
X14324682Y-12424150D02*
X14343730Y-12433674D01*
X14343730Y-12433674D02*
X14353253Y-12443198D01*
X14353253Y-12443198D02*
X14362777Y-12462246D01*
X14362777Y-12462246D02*
X14362777Y-12519388D01*
X14362777Y-12519388D02*
X14353253Y-12538436D01*
X14353253Y-12538436D02*
X14343730Y-12547960D01*
X14343730Y-12547960D02*
X14324682Y-12557484D01*
X14324682Y-12557484D02*
X14296110Y-12557484D01*
X14477063Y-12557484D02*
X14458015Y-12547960D01*
X14458015Y-12547960D02*
X14448491Y-12528912D01*
X14448491Y-12528912D02*
X14448491Y-12357484D01*
X14629444Y-12547960D02*
X14610396Y-12557484D01*
X14610396Y-12557484D02*
X14572301Y-12557484D01*
X14572301Y-12557484D02*
X14553253Y-12547960D01*
X14553253Y-12547960D02*
X14543730Y-12528912D01*
X14543730Y-12528912D02*
X14543730Y-12452722D01*
X14543730Y-12452722D02*
X14553253Y-12433674D01*
X14553253Y-12433674D02*
X14572301Y-12424150D01*
X14572301Y-12424150D02*
X14610396Y-12424150D01*
X14610396Y-12424150D02*
X14629444Y-12433674D01*
X14629444Y-12433674D02*
X14638968Y-12452722D01*
X14638968Y-12452722D02*
X14638968Y-12471769D01*
X14638968Y-12471769D02*
X14543730Y-12490817D01*
X14715158Y-12547960D02*
X14734206Y-12557484D01*
X14734206Y-12557484D02*
X14772301Y-12557484D01*
X14772301Y-12557484D02*
X14791349Y-12547960D01*
X14791349Y-12547960D02*
X14800872Y-12528912D01*
X14800872Y-12528912D02*
X14800872Y-12519388D01*
X14800872Y-12519388D02*
X14791349Y-12500341D01*
X14791349Y-12500341D02*
X14772301Y-12490817D01*
X14772301Y-12490817D02*
X14743730Y-12490817D01*
X14743730Y-12490817D02*
X14724682Y-12481293D01*
X14724682Y-12481293D02*
X14715158Y-12462246D01*
X14715158Y-12462246D02*
X14715158Y-12452722D01*
X14715158Y-12452722D02*
X14724682Y-12433674D01*
X14724682Y-12433674D02*
X14743730Y-12424150D01*
X14743730Y-12424150D02*
X14772301Y-12424150D01*
X14772301Y-12424150D02*
X14791349Y-12433674D01*
X14867539Y-12633674D02*
X14877063Y-12624150D01*
X14877063Y-12624150D02*
X14896111Y-12595579D01*
X14896111Y-12595579D02*
X14905634Y-12576531D01*
X14905634Y-12576531D02*
X14915158Y-12547960D01*
X14915158Y-12547960D02*
X14924682Y-12500341D01*
X14924682Y-12500341D02*
X14924682Y-12462246D01*
X14924682Y-12462246D02*
X14915158Y-12414627D01*
X14915158Y-12414627D02*
X14905634Y-12386055D01*
X14905634Y-12386055D02*
X14896111Y-12367008D01*
X14896111Y-12367008D02*
X14877063Y-12338436D01*
X14877063Y-12338436D02*
X14867539Y-12328912D01*
D13*
X9882000Y-12710000D02*
X9882000Y-12750000D01*
X9862000Y-12730000D02*
X9902000Y-12730000D01*
D11*
X10200872Y-12621484D02*
X10219920Y-12621484D01*
X10219920Y-12621484D02*
X10238967Y-12631008D01*
X10238967Y-12631008D02*
X10248491Y-12640531D01*
X10248491Y-12640531D02*
X10258015Y-12659579D01*
X10258015Y-12659579D02*
X10267539Y-12697674D01*
X10267539Y-12697674D02*
X10267539Y-12745293D01*
X10267539Y-12745293D02*
X10258015Y-12783388D01*
X10258015Y-12783388D02*
X10248491Y-12802436D01*
X10248491Y-12802436D02*
X10238967Y-12811960D01*
X10238967Y-12811960D02*
X10219920Y-12821484D01*
X10219920Y-12821484D02*
X10200872Y-12821484D01*
X10200872Y-12821484D02*
X10181824Y-12811960D01*
X10181824Y-12811960D02*
X10172301Y-12802436D01*
X10172301Y-12802436D02*
X10162777Y-12783388D01*
X10162777Y-12783388D02*
X10153253Y-12745293D01*
X10153253Y-12745293D02*
X10153253Y-12697674D01*
X10153253Y-12697674D02*
X10162777Y-12659579D01*
X10162777Y-12659579D02*
X10172301Y-12640531D01*
X10172301Y-12640531D02*
X10181824Y-12631008D01*
X10181824Y-12631008D02*
X10200872Y-12621484D01*
X10353253Y-12802436D02*
X10362777Y-12811960D01*
X10362777Y-12811960D02*
X10353253Y-12821484D01*
X10353253Y-12821484D02*
X10343729Y-12811960D01*
X10343729Y-12811960D02*
X10353253Y-12802436D01*
X10353253Y-12802436D02*
X10353253Y-12821484D01*
X10534205Y-12688150D02*
X10534205Y-12821484D01*
X10486586Y-12611960D02*
X10438967Y-12754817D01*
X10438967Y-12754817D02*
X10562777Y-12754817D01*
X10677063Y-12621484D02*
X10696110Y-12621484D01*
X10696110Y-12621484D02*
X10715158Y-12631008D01*
X10715158Y-12631008D02*
X10724682Y-12640531D01*
X10724682Y-12640531D02*
X10734205Y-12659579D01*
X10734205Y-12659579D02*
X10743729Y-12697674D01*
X10743729Y-12697674D02*
X10743729Y-12745293D01*
X10743729Y-12745293D02*
X10734205Y-12783388D01*
X10734205Y-12783388D02*
X10724682Y-12802436D01*
X10724682Y-12802436D02*
X10715158Y-12811960D01*
X10715158Y-12811960D02*
X10696110Y-12821484D01*
X10696110Y-12821484D02*
X10677063Y-12821484D01*
X10677063Y-12821484D02*
X10658015Y-12811960D01*
X10658015Y-12811960D02*
X10648491Y-12802436D01*
X10648491Y-12802436D02*
X10638967Y-12783388D01*
X10638967Y-12783388D02*
X10629444Y-12745293D01*
X10629444Y-12745293D02*
X10629444Y-12697674D01*
X10629444Y-12697674D02*
X10638967Y-12659579D01*
X10638967Y-12659579D02*
X10648491Y-12640531D01*
X10648491Y-12640531D02*
X10658015Y-12631008D01*
X10658015Y-12631008D02*
X10677063Y-12621484D01*
X10867539Y-12621484D02*
X10886586Y-12621484D01*
X10886586Y-12621484D02*
X10905634Y-12631008D01*
X10905634Y-12631008D02*
X10915158Y-12640531D01*
X10915158Y-12640531D02*
X10924682Y-12659579D01*
X10924682Y-12659579D02*
X10934205Y-12697674D01*
X10934205Y-12697674D02*
X10934205Y-12745293D01*
X10934205Y-12745293D02*
X10924682Y-12783388D01*
X10924682Y-12783388D02*
X10915158Y-12802436D01*
X10915158Y-12802436D02*
X10905634Y-12811960D01*
X10905634Y-12811960D02*
X10886586Y-12821484D01*
X10886586Y-12821484D02*
X10867539Y-12821484D01*
X10867539Y-12821484D02*
X10848491Y-12811960D01*
X10848491Y-12811960D02*
X10838967Y-12802436D01*
X10838967Y-12802436D02*
X10829444Y-12783388D01*
X10829444Y-12783388D02*
X10819920Y-12745293D01*
X10819920Y-12745293D02*
X10819920Y-12697674D01*
X10819920Y-12697674D02*
X10829444Y-12659579D01*
X10829444Y-12659579D02*
X10838967Y-12640531D01*
X10838967Y-12640531D02*
X10848491Y-12631008D01*
X10848491Y-12631008D02*
X10867539Y-12621484D01*
X11019920Y-12821484D02*
X11019920Y-12688150D01*
X11019920Y-12707198D02*
X11029444Y-12697674D01*
X11029444Y-12697674D02*
X11048491Y-12688150D01*
X11048491Y-12688150D02*
X11077063Y-12688150D01*
X11077063Y-12688150D02*
X11096110Y-12697674D01*
X11096110Y-12697674D02*
X11105634Y-12716722D01*
X11105634Y-12716722D02*
X11105634Y-12821484D01*
X11105634Y-12716722D02*
X11115158Y-12697674D01*
X11115158Y-12697674D02*
X11134205Y-12688150D01*
X11134205Y-12688150D02*
X11162777Y-12688150D01*
X11162777Y-12688150D02*
X11181825Y-12697674D01*
X11181825Y-12697674D02*
X11191348Y-12716722D01*
X11191348Y-12716722D02*
X11191348Y-12821484D01*
X11286586Y-12821484D02*
X11286586Y-12688150D01*
X11286586Y-12707198D02*
X11296110Y-12697674D01*
X11296110Y-12697674D02*
X11315158Y-12688150D01*
X11315158Y-12688150D02*
X11343729Y-12688150D01*
X11343729Y-12688150D02*
X11362777Y-12697674D01*
X11362777Y-12697674D02*
X11372301Y-12716722D01*
X11372301Y-12716722D02*
X11372301Y-12821484D01*
X11372301Y-12716722D02*
X11381824Y-12697674D01*
X11381824Y-12697674D02*
X11400872Y-12688150D01*
X11400872Y-12688150D02*
X11429443Y-12688150D01*
X11429443Y-12688150D02*
X11448491Y-12697674D01*
X11448491Y-12697674D02*
X11458015Y-12716722D01*
X11458015Y-12716722D02*
X11458015Y-12821484D01*
X11848491Y-12611960D02*
X11677063Y-12869103D01*
X12105634Y-12621484D02*
X12124682Y-12621484D01*
X12124682Y-12621484D02*
X12143729Y-12631008D01*
X12143729Y-12631008D02*
X12153253Y-12640531D01*
X12153253Y-12640531D02*
X12162777Y-12659579D01*
X12162777Y-12659579D02*
X12172301Y-12697674D01*
X12172301Y-12697674D02*
X12172301Y-12745293D01*
X12172301Y-12745293D02*
X12162777Y-12783388D01*
X12162777Y-12783388D02*
X12153253Y-12802436D01*
X12153253Y-12802436D02*
X12143729Y-12811960D01*
X12143729Y-12811960D02*
X12124682Y-12821484D01*
X12124682Y-12821484D02*
X12105634Y-12821484D01*
X12105634Y-12821484D02*
X12086586Y-12811960D01*
X12086586Y-12811960D02*
X12077063Y-12802436D01*
X12077063Y-12802436D02*
X12067539Y-12783388D01*
X12067539Y-12783388D02*
X12058015Y-12745293D01*
X12058015Y-12745293D02*
X12058015Y-12697674D01*
X12058015Y-12697674D02*
X12067539Y-12659579D01*
X12067539Y-12659579D02*
X12077063Y-12640531D01*
X12077063Y-12640531D02*
X12086586Y-12631008D01*
X12086586Y-12631008D02*
X12105634Y-12621484D01*
X12258015Y-12802436D02*
X12267539Y-12811960D01*
X12267539Y-12811960D02*
X12258015Y-12821484D01*
X12258015Y-12821484D02*
X12248491Y-12811960D01*
X12248491Y-12811960D02*
X12258015Y-12802436D01*
X12258015Y-12802436D02*
X12258015Y-12821484D01*
X12391348Y-12621484D02*
X12410396Y-12621484D01*
X12410396Y-12621484D02*
X12429444Y-12631008D01*
X12429444Y-12631008D02*
X12438967Y-12640531D01*
X12438967Y-12640531D02*
X12448491Y-12659579D01*
X12448491Y-12659579D02*
X12458015Y-12697674D01*
X12458015Y-12697674D02*
X12458015Y-12745293D01*
X12458015Y-12745293D02*
X12448491Y-12783388D01*
X12448491Y-12783388D02*
X12438967Y-12802436D01*
X12438967Y-12802436D02*
X12429444Y-12811960D01*
X12429444Y-12811960D02*
X12410396Y-12821484D01*
X12410396Y-12821484D02*
X12391348Y-12821484D01*
X12391348Y-12821484D02*
X12372301Y-12811960D01*
X12372301Y-12811960D02*
X12362777Y-12802436D01*
X12362777Y-12802436D02*
X12353253Y-12783388D01*
X12353253Y-12783388D02*
X12343729Y-12745293D01*
X12343729Y-12745293D02*
X12343729Y-12697674D01*
X12343729Y-12697674D02*
X12353253Y-12659579D01*
X12353253Y-12659579D02*
X12362777Y-12640531D01*
X12362777Y-12640531D02*
X12372301Y-12631008D01*
X12372301Y-12631008D02*
X12391348Y-12621484D01*
X12648491Y-12821484D02*
X12534206Y-12821484D01*
X12591348Y-12821484D02*
X12591348Y-12621484D01*
X12591348Y-12621484D02*
X12572301Y-12650055D01*
X12572301Y-12650055D02*
X12553253Y-12669103D01*
X12553253Y-12669103D02*
X12534206Y-12678627D01*
X12829444Y-12621484D02*
X12734206Y-12621484D01*
X12734206Y-12621484D02*
X12724682Y-12716722D01*
X12724682Y-12716722D02*
X12734206Y-12707198D01*
X12734206Y-12707198D02*
X12753253Y-12697674D01*
X12753253Y-12697674D02*
X12800872Y-12697674D01*
X12800872Y-12697674D02*
X12819920Y-12707198D01*
X12819920Y-12707198D02*
X12829444Y-12716722D01*
X12829444Y-12716722D02*
X12838967Y-12735769D01*
X12838967Y-12735769D02*
X12838967Y-12783388D01*
X12838967Y-12783388D02*
X12829444Y-12802436D01*
X12829444Y-12802436D02*
X12819920Y-12811960D01*
X12819920Y-12811960D02*
X12800872Y-12821484D01*
X12800872Y-12821484D02*
X12753253Y-12821484D01*
X12753253Y-12821484D02*
X12734206Y-12811960D01*
X12734206Y-12811960D02*
X12724682Y-12802436D01*
X12905634Y-12621484D02*
X13038967Y-12621484D01*
X13038967Y-12621484D02*
X12953253Y-12821484D01*
X13105634Y-12621484D02*
X13105634Y-12659579D01*
X13181825Y-12621484D02*
X13181825Y-12659579D01*
X13477063Y-12897674D02*
X13467539Y-12888150D01*
X13467539Y-12888150D02*
X13448491Y-12859579D01*
X13448491Y-12859579D02*
X13438968Y-12840531D01*
X13438968Y-12840531D02*
X13429444Y-12811960D01*
X13429444Y-12811960D02*
X13419920Y-12764341D01*
X13419920Y-12764341D02*
X13419920Y-12726246D01*
X13419920Y-12726246D02*
X13429444Y-12678627D01*
X13429444Y-12678627D02*
X13438968Y-12650055D01*
X13438968Y-12650055D02*
X13448491Y-12631008D01*
X13448491Y-12631008D02*
X13467539Y-12602436D01*
X13467539Y-12602436D02*
X13477063Y-12592912D01*
X13638968Y-12688150D02*
X13638968Y-12821484D01*
X13591348Y-12611960D02*
X13543729Y-12754817D01*
X13543729Y-12754817D02*
X13667539Y-12754817D01*
X13848491Y-12821484D02*
X13734206Y-12821484D01*
X13791348Y-12821484D02*
X13791348Y-12621484D01*
X13791348Y-12621484D02*
X13772301Y-12650055D01*
X13772301Y-12650055D02*
X13753253Y-12669103D01*
X13753253Y-12669103D02*
X13734206Y-12678627D01*
X14086587Y-12821484D02*
X14086587Y-12621484D01*
X14172301Y-12821484D02*
X14172301Y-12716722D01*
X14172301Y-12716722D02*
X14162777Y-12697674D01*
X14162777Y-12697674D02*
X14143730Y-12688150D01*
X14143730Y-12688150D02*
X14115158Y-12688150D01*
X14115158Y-12688150D02*
X14096110Y-12697674D01*
X14096110Y-12697674D02*
X14086587Y-12707198D01*
X14296110Y-12821484D02*
X14277063Y-12811960D01*
X14277063Y-12811960D02*
X14267539Y-12802436D01*
X14267539Y-12802436D02*
X14258015Y-12783388D01*
X14258015Y-12783388D02*
X14258015Y-12726246D01*
X14258015Y-12726246D02*
X14267539Y-12707198D01*
X14267539Y-12707198D02*
X14277063Y-12697674D01*
X14277063Y-12697674D02*
X14296110Y-12688150D01*
X14296110Y-12688150D02*
X14324682Y-12688150D01*
X14324682Y-12688150D02*
X14343730Y-12697674D01*
X14343730Y-12697674D02*
X14353253Y-12707198D01*
X14353253Y-12707198D02*
X14362777Y-12726246D01*
X14362777Y-12726246D02*
X14362777Y-12783388D01*
X14362777Y-12783388D02*
X14353253Y-12802436D01*
X14353253Y-12802436D02*
X14343730Y-12811960D01*
X14343730Y-12811960D02*
X14324682Y-12821484D01*
X14324682Y-12821484D02*
X14296110Y-12821484D01*
X14477063Y-12821484D02*
X14458015Y-12811960D01*
X14458015Y-12811960D02*
X14448491Y-12792912D01*
X14448491Y-12792912D02*
X14448491Y-12621484D01*
X14629444Y-12811960D02*
X14610396Y-12821484D01*
X14610396Y-12821484D02*
X14572301Y-12821484D01*
X14572301Y-12821484D02*
X14553253Y-12811960D01*
X14553253Y-12811960D02*
X14543730Y-12792912D01*
X14543730Y-12792912D02*
X14543730Y-12716722D01*
X14543730Y-12716722D02*
X14553253Y-12697674D01*
X14553253Y-12697674D02*
X14572301Y-12688150D01*
X14572301Y-12688150D02*
X14610396Y-12688150D01*
X14610396Y-12688150D02*
X14629444Y-12697674D01*
X14629444Y-12697674D02*
X14638968Y-12716722D01*
X14638968Y-12716722D02*
X14638968Y-12735769D01*
X14638968Y-12735769D02*
X14543730Y-12754817D01*
X14715158Y-12811960D02*
X14734206Y-12821484D01*
X14734206Y-12821484D02*
X14772301Y-12821484D01*
X14772301Y-12821484D02*
X14791349Y-12811960D01*
X14791349Y-12811960D02*
X14800872Y-12792912D01*
X14800872Y-12792912D02*
X14800872Y-12783388D01*
X14800872Y-12783388D02*
X14791349Y-12764341D01*
X14791349Y-12764341D02*
X14772301Y-12754817D01*
X14772301Y-12754817D02*
X14743730Y-12754817D01*
X14743730Y-12754817D02*
X14724682Y-12745293D01*
X14724682Y-12745293D02*
X14715158Y-12726246D01*
X14715158Y-12726246D02*
X14715158Y-12716722D01*
X14715158Y-12716722D02*
X14724682Y-12697674D01*
X14724682Y-12697674D02*
X14743730Y-12688150D01*
X14743730Y-12688150D02*
X14772301Y-12688150D01*
X14772301Y-12688150D02*
X14791349Y-12697674D01*
X14867539Y-12897674D02*
X14877063Y-12888150D01*
X14877063Y-12888150D02*
X14896111Y-12859579D01*
X14896111Y-12859579D02*
X14905634Y-12840531D01*
X14905634Y-12840531D02*
X14915158Y-12811960D01*
X14915158Y-12811960D02*
X14924682Y-12764341D01*
X14924682Y-12764341D02*
X14924682Y-12726246D01*
X14924682Y-12726246D02*
X14915158Y-12678627D01*
X14915158Y-12678627D02*
X14905634Y-12650055D01*
X14905634Y-12650055D02*
X14896111Y-12631008D01*
X14896111Y-12631008D02*
X14877063Y-12602436D01*
X14877063Y-12602436D02*
X14867539Y-12592912D01*
D14*
X9892481Y-13016981D02*
X9892481Y-12971019D01*
X9846519Y-12971019D01*
X9846519Y-13016981D01*
X9892481Y-13016981D01*
D11*
X10200872Y-12885484D02*
X10219920Y-12885484D01*
X10219920Y-12885484D02*
X10238967Y-12895008D01*
X10238967Y-12895008D02*
X10248491Y-12904531D01*
X10248491Y-12904531D02*
X10258015Y-12923579D01*
X10258015Y-12923579D02*
X10267539Y-12961674D01*
X10267539Y-12961674D02*
X10267539Y-13009293D01*
X10267539Y-13009293D02*
X10258015Y-13047388D01*
X10258015Y-13047388D02*
X10248491Y-13066436D01*
X10248491Y-13066436D02*
X10238967Y-13075960D01*
X10238967Y-13075960D02*
X10219920Y-13085484D01*
X10219920Y-13085484D02*
X10200872Y-13085484D01*
X10200872Y-13085484D02*
X10181824Y-13075960D01*
X10181824Y-13075960D02*
X10172301Y-13066436D01*
X10172301Y-13066436D02*
X10162777Y-13047388D01*
X10162777Y-13047388D02*
X10153253Y-13009293D01*
X10153253Y-13009293D02*
X10153253Y-12961674D01*
X10153253Y-12961674D02*
X10162777Y-12923579D01*
X10162777Y-12923579D02*
X10172301Y-12904531D01*
X10172301Y-12904531D02*
X10181824Y-12895008D01*
X10181824Y-12895008D02*
X10200872Y-12885484D01*
X10353253Y-13066436D02*
X10362777Y-13075960D01*
X10362777Y-13075960D02*
X10353253Y-13085484D01*
X10353253Y-13085484D02*
X10343729Y-13075960D01*
X10343729Y-13075960D02*
X10353253Y-13066436D01*
X10353253Y-13066436D02*
X10353253Y-13085484D01*
X10534205Y-12885484D02*
X10496110Y-12885484D01*
X10496110Y-12885484D02*
X10477063Y-12895008D01*
X10477063Y-12895008D02*
X10467539Y-12904531D01*
X10467539Y-12904531D02*
X10448491Y-12933103D01*
X10448491Y-12933103D02*
X10438967Y-12971198D01*
X10438967Y-12971198D02*
X10438967Y-13047388D01*
X10438967Y-13047388D02*
X10448491Y-13066436D01*
X10448491Y-13066436D02*
X10458015Y-13075960D01*
X10458015Y-13075960D02*
X10477063Y-13085484D01*
X10477063Y-13085484D02*
X10515158Y-13085484D01*
X10515158Y-13085484D02*
X10534205Y-13075960D01*
X10534205Y-13075960D02*
X10543729Y-13066436D01*
X10543729Y-13066436D02*
X10553253Y-13047388D01*
X10553253Y-13047388D02*
X10553253Y-12999769D01*
X10553253Y-12999769D02*
X10543729Y-12980722D01*
X10543729Y-12980722D02*
X10534205Y-12971198D01*
X10534205Y-12971198D02*
X10515158Y-12961674D01*
X10515158Y-12961674D02*
X10477063Y-12961674D01*
X10477063Y-12961674D02*
X10458015Y-12971198D01*
X10458015Y-12971198D02*
X10448491Y-12980722D01*
X10448491Y-12980722D02*
X10438967Y-12999769D01*
X10734205Y-12885484D02*
X10638967Y-12885484D01*
X10638967Y-12885484D02*
X10629444Y-12980722D01*
X10629444Y-12980722D02*
X10638967Y-12971198D01*
X10638967Y-12971198D02*
X10658015Y-12961674D01*
X10658015Y-12961674D02*
X10705634Y-12961674D01*
X10705634Y-12961674D02*
X10724682Y-12971198D01*
X10724682Y-12971198D02*
X10734205Y-12980722D01*
X10734205Y-12980722D02*
X10743729Y-12999769D01*
X10743729Y-12999769D02*
X10743729Y-13047388D01*
X10743729Y-13047388D02*
X10734205Y-13066436D01*
X10734205Y-13066436D02*
X10724682Y-13075960D01*
X10724682Y-13075960D02*
X10705634Y-13085484D01*
X10705634Y-13085484D02*
X10658015Y-13085484D01*
X10658015Y-13085484D02*
X10638967Y-13075960D01*
X10638967Y-13075960D02*
X10629444Y-13066436D01*
X10867539Y-12885484D02*
X10886586Y-12885484D01*
X10886586Y-12885484D02*
X10905634Y-12895008D01*
X10905634Y-12895008D02*
X10915158Y-12904531D01*
X10915158Y-12904531D02*
X10924682Y-12923579D01*
X10924682Y-12923579D02*
X10934205Y-12961674D01*
X10934205Y-12961674D02*
X10934205Y-13009293D01*
X10934205Y-13009293D02*
X10924682Y-13047388D01*
X10924682Y-13047388D02*
X10915158Y-13066436D01*
X10915158Y-13066436D02*
X10905634Y-13075960D01*
X10905634Y-13075960D02*
X10886586Y-13085484D01*
X10886586Y-13085484D02*
X10867539Y-13085484D01*
X10867539Y-13085484D02*
X10848491Y-13075960D01*
X10848491Y-13075960D02*
X10838967Y-13066436D01*
X10838967Y-13066436D02*
X10829444Y-13047388D01*
X10829444Y-13047388D02*
X10819920Y-13009293D01*
X10819920Y-13009293D02*
X10819920Y-12961674D01*
X10819920Y-12961674D02*
X10829444Y-12923579D01*
X10829444Y-12923579D02*
X10838967Y-12904531D01*
X10838967Y-12904531D02*
X10848491Y-12895008D01*
X10848491Y-12895008D02*
X10867539Y-12885484D01*
X11019920Y-13085484D02*
X11019920Y-12952150D01*
X11019920Y-12971198D02*
X11029444Y-12961674D01*
X11029444Y-12961674D02*
X11048491Y-12952150D01*
X11048491Y-12952150D02*
X11077063Y-12952150D01*
X11077063Y-12952150D02*
X11096110Y-12961674D01*
X11096110Y-12961674D02*
X11105634Y-12980722D01*
X11105634Y-12980722D02*
X11105634Y-13085484D01*
X11105634Y-12980722D02*
X11115158Y-12961674D01*
X11115158Y-12961674D02*
X11134205Y-12952150D01*
X11134205Y-12952150D02*
X11162777Y-12952150D01*
X11162777Y-12952150D02*
X11181825Y-12961674D01*
X11181825Y-12961674D02*
X11191348Y-12980722D01*
X11191348Y-12980722D02*
X11191348Y-13085484D01*
X11286586Y-13085484D02*
X11286586Y-12952150D01*
X11286586Y-12971198D02*
X11296110Y-12961674D01*
X11296110Y-12961674D02*
X11315158Y-12952150D01*
X11315158Y-12952150D02*
X11343729Y-12952150D01*
X11343729Y-12952150D02*
X11362777Y-12961674D01*
X11362777Y-12961674D02*
X11372301Y-12980722D01*
X11372301Y-12980722D02*
X11372301Y-13085484D01*
X11372301Y-12980722D02*
X11381824Y-12961674D01*
X11381824Y-12961674D02*
X11400872Y-12952150D01*
X11400872Y-12952150D02*
X11429443Y-12952150D01*
X11429443Y-12952150D02*
X11448491Y-12961674D01*
X11448491Y-12961674D02*
X11458015Y-12980722D01*
X11458015Y-12980722D02*
X11458015Y-13085484D01*
X11848491Y-12875960D02*
X11677063Y-13133103D01*
X12105634Y-12885484D02*
X12124682Y-12885484D01*
X12124682Y-12885484D02*
X12143729Y-12895008D01*
X12143729Y-12895008D02*
X12153253Y-12904531D01*
X12153253Y-12904531D02*
X12162777Y-12923579D01*
X12162777Y-12923579D02*
X12172301Y-12961674D01*
X12172301Y-12961674D02*
X12172301Y-13009293D01*
X12172301Y-13009293D02*
X12162777Y-13047388D01*
X12162777Y-13047388D02*
X12153253Y-13066436D01*
X12153253Y-13066436D02*
X12143729Y-13075960D01*
X12143729Y-13075960D02*
X12124682Y-13085484D01*
X12124682Y-13085484D02*
X12105634Y-13085484D01*
X12105634Y-13085484D02*
X12086586Y-13075960D01*
X12086586Y-13075960D02*
X12077063Y-13066436D01*
X12077063Y-13066436D02*
X12067539Y-13047388D01*
X12067539Y-13047388D02*
X12058015Y-13009293D01*
X12058015Y-13009293D02*
X12058015Y-12961674D01*
X12058015Y-12961674D02*
X12067539Y-12923579D01*
X12067539Y-12923579D02*
X12077063Y-12904531D01*
X12077063Y-12904531D02*
X12086586Y-12895008D01*
X12086586Y-12895008D02*
X12105634Y-12885484D01*
X12258015Y-13066436D02*
X12267539Y-13075960D01*
X12267539Y-13075960D02*
X12258015Y-13085484D01*
X12258015Y-13085484D02*
X12248491Y-13075960D01*
X12248491Y-13075960D02*
X12258015Y-13066436D01*
X12258015Y-13066436D02*
X12258015Y-13085484D01*
X12391348Y-12885484D02*
X12410396Y-12885484D01*
X12410396Y-12885484D02*
X12429444Y-12895008D01*
X12429444Y-12895008D02*
X12438967Y-12904531D01*
X12438967Y-12904531D02*
X12448491Y-12923579D01*
X12448491Y-12923579D02*
X12458015Y-12961674D01*
X12458015Y-12961674D02*
X12458015Y-13009293D01*
X12458015Y-13009293D02*
X12448491Y-13047388D01*
X12448491Y-13047388D02*
X12438967Y-13066436D01*
X12438967Y-13066436D02*
X12429444Y-13075960D01*
X12429444Y-13075960D02*
X12410396Y-13085484D01*
X12410396Y-13085484D02*
X12391348Y-13085484D01*
X12391348Y-13085484D02*
X12372301Y-13075960D01*
X12372301Y-13075960D02*
X12362777Y-13066436D01*
X12362777Y-13066436D02*
X12353253Y-13047388D01*
X12353253Y-13047388D02*
X12343729Y-13009293D01*
X12343729Y-13009293D02*
X12343729Y-12961674D01*
X12343729Y-12961674D02*
X12353253Y-12923579D01*
X12353253Y-12923579D02*
X12362777Y-12904531D01*
X12362777Y-12904531D02*
X12372301Y-12895008D01*
X12372301Y-12895008D02*
X12391348Y-12885484D01*
X12534206Y-12904531D02*
X12543729Y-12895008D01*
X12543729Y-12895008D02*
X12562777Y-12885484D01*
X12562777Y-12885484D02*
X12610396Y-12885484D01*
X12610396Y-12885484D02*
X12629444Y-12895008D01*
X12629444Y-12895008D02*
X12638967Y-12904531D01*
X12638967Y-12904531D02*
X12648491Y-12923579D01*
X12648491Y-12923579D02*
X12648491Y-12942627D01*
X12648491Y-12942627D02*
X12638967Y-12971198D01*
X12638967Y-12971198D02*
X12524682Y-13085484D01*
X12524682Y-13085484D02*
X12648491Y-13085484D01*
X12829444Y-12885484D02*
X12734206Y-12885484D01*
X12734206Y-12885484D02*
X12724682Y-12980722D01*
X12724682Y-12980722D02*
X12734206Y-12971198D01*
X12734206Y-12971198D02*
X12753253Y-12961674D01*
X12753253Y-12961674D02*
X12800872Y-12961674D01*
X12800872Y-12961674D02*
X12819920Y-12971198D01*
X12819920Y-12971198D02*
X12829444Y-12980722D01*
X12829444Y-12980722D02*
X12838967Y-12999769D01*
X12838967Y-12999769D02*
X12838967Y-13047388D01*
X12838967Y-13047388D02*
X12829444Y-13066436D01*
X12829444Y-13066436D02*
X12819920Y-13075960D01*
X12819920Y-13075960D02*
X12800872Y-13085484D01*
X12800872Y-13085484D02*
X12753253Y-13085484D01*
X12753253Y-13085484D02*
X12734206Y-13075960D01*
X12734206Y-13075960D02*
X12724682Y-13066436D01*
X13010396Y-12885484D02*
X12972301Y-12885484D01*
X12972301Y-12885484D02*
X12953253Y-12895008D01*
X12953253Y-12895008D02*
X12943729Y-12904531D01*
X12943729Y-12904531D02*
X12924682Y-12933103D01*
X12924682Y-12933103D02*
X12915158Y-12971198D01*
X12915158Y-12971198D02*
X12915158Y-13047388D01*
X12915158Y-13047388D02*
X12924682Y-13066436D01*
X12924682Y-13066436D02*
X12934206Y-13075960D01*
X12934206Y-13075960D02*
X12953253Y-13085484D01*
X12953253Y-13085484D02*
X12991348Y-13085484D01*
X12991348Y-13085484D02*
X13010396Y-13075960D01*
X13010396Y-13075960D02*
X13019920Y-13066436D01*
X13019920Y-13066436D02*
X13029444Y-13047388D01*
X13029444Y-13047388D02*
X13029444Y-12999769D01*
X13029444Y-12999769D02*
X13019920Y-12980722D01*
X13019920Y-12980722D02*
X13010396Y-12971198D01*
X13010396Y-12971198D02*
X12991348Y-12961674D01*
X12991348Y-12961674D02*
X12953253Y-12961674D01*
X12953253Y-12961674D02*
X12934206Y-12971198D01*
X12934206Y-12971198D02*
X12924682Y-12980722D01*
X12924682Y-12980722D02*
X12915158Y-12999769D01*
X13105634Y-12885484D02*
X13105634Y-12923579D01*
X13181825Y-12885484D02*
X13181825Y-12923579D01*
X13477063Y-13161674D02*
X13467539Y-13152150D01*
X13467539Y-13152150D02*
X13448491Y-13123579D01*
X13448491Y-13123579D02*
X13438968Y-13104531D01*
X13438968Y-13104531D02*
X13429444Y-13075960D01*
X13429444Y-13075960D02*
X13419920Y-13028341D01*
X13419920Y-13028341D02*
X13419920Y-12990246D01*
X13419920Y-12990246D02*
X13429444Y-12942627D01*
X13429444Y-12942627D02*
X13438968Y-12914055D01*
X13438968Y-12914055D02*
X13448491Y-12895008D01*
X13448491Y-12895008D02*
X13467539Y-12866436D01*
X13467539Y-12866436D02*
X13477063Y-12856912D01*
X13591348Y-12885484D02*
X13610396Y-12885484D01*
X13610396Y-12885484D02*
X13629444Y-12895008D01*
X13629444Y-12895008D02*
X13638968Y-12904531D01*
X13638968Y-12904531D02*
X13648491Y-12923579D01*
X13648491Y-12923579D02*
X13658015Y-12961674D01*
X13658015Y-12961674D02*
X13658015Y-13009293D01*
X13658015Y-13009293D02*
X13648491Y-13047388D01*
X13648491Y-13047388D02*
X13638968Y-13066436D01*
X13638968Y-13066436D02*
X13629444Y-13075960D01*
X13629444Y-13075960D02*
X13610396Y-13085484D01*
X13610396Y-13085484D02*
X13591348Y-13085484D01*
X13591348Y-13085484D02*
X13572301Y-13075960D01*
X13572301Y-13075960D02*
X13562777Y-13066436D01*
X13562777Y-13066436D02*
X13553253Y-13047388D01*
X13553253Y-13047388D02*
X13543729Y-13009293D01*
X13543729Y-13009293D02*
X13543729Y-12961674D01*
X13543729Y-12961674D02*
X13553253Y-12923579D01*
X13553253Y-12923579D02*
X13562777Y-12904531D01*
X13562777Y-12904531D02*
X13572301Y-12895008D01*
X13572301Y-12895008D02*
X13591348Y-12885484D01*
X13896110Y-13085484D02*
X13896110Y-12885484D01*
X13981825Y-13085484D02*
X13981825Y-12980722D01*
X13981825Y-12980722D02*
X13972301Y-12961674D01*
X13972301Y-12961674D02*
X13953253Y-12952150D01*
X13953253Y-12952150D02*
X13924682Y-12952150D01*
X13924682Y-12952150D02*
X13905634Y-12961674D01*
X13905634Y-12961674D02*
X13896110Y-12971198D01*
X14105634Y-13085484D02*
X14086587Y-13075960D01*
X14086587Y-13075960D02*
X14077063Y-13066436D01*
X14077063Y-13066436D02*
X14067539Y-13047388D01*
X14067539Y-13047388D02*
X14067539Y-12990246D01*
X14067539Y-12990246D02*
X14077063Y-12971198D01*
X14077063Y-12971198D02*
X14086587Y-12961674D01*
X14086587Y-12961674D02*
X14105634Y-12952150D01*
X14105634Y-12952150D02*
X14134206Y-12952150D01*
X14134206Y-12952150D02*
X14153253Y-12961674D01*
X14153253Y-12961674D02*
X14162777Y-12971198D01*
X14162777Y-12971198D02*
X14172301Y-12990246D01*
X14172301Y-12990246D02*
X14172301Y-13047388D01*
X14172301Y-13047388D02*
X14162777Y-13066436D01*
X14162777Y-13066436D02*
X14153253Y-13075960D01*
X14153253Y-13075960D02*
X14134206Y-13085484D01*
X14134206Y-13085484D02*
X14105634Y-13085484D01*
X14286587Y-13085484D02*
X14267539Y-13075960D01*
X14267539Y-13075960D02*
X14258015Y-13056912D01*
X14258015Y-13056912D02*
X14258015Y-12885484D01*
X14438968Y-13075960D02*
X14419920Y-13085484D01*
X14419920Y-13085484D02*
X14381825Y-13085484D01*
X14381825Y-13085484D02*
X14362777Y-13075960D01*
X14362777Y-13075960D02*
X14353253Y-13056912D01*
X14353253Y-13056912D02*
X14353253Y-12980722D01*
X14353253Y-12980722D02*
X14362777Y-12961674D01*
X14362777Y-12961674D02*
X14381825Y-12952150D01*
X14381825Y-12952150D02*
X14419920Y-12952150D01*
X14419920Y-12952150D02*
X14438968Y-12961674D01*
X14438968Y-12961674D02*
X14448491Y-12980722D01*
X14448491Y-12980722D02*
X14448491Y-12999769D01*
X14448491Y-12999769D02*
X14353253Y-13018817D01*
X14524682Y-13075960D02*
X14543730Y-13085484D01*
X14543730Y-13085484D02*
X14581825Y-13085484D01*
X14581825Y-13085484D02*
X14600872Y-13075960D01*
X14600872Y-13075960D02*
X14610396Y-13056912D01*
X14610396Y-13056912D02*
X14610396Y-13047388D01*
X14610396Y-13047388D02*
X14600872Y-13028341D01*
X14600872Y-13028341D02*
X14581825Y-13018817D01*
X14581825Y-13018817D02*
X14553253Y-13018817D01*
X14553253Y-13018817D02*
X14534206Y-13009293D01*
X14534206Y-13009293D02*
X14524682Y-12990246D01*
X14524682Y-12990246D02*
X14524682Y-12980722D01*
X14524682Y-12980722D02*
X14534206Y-12961674D01*
X14534206Y-12961674D02*
X14553253Y-12952150D01*
X14553253Y-12952150D02*
X14581825Y-12952150D01*
X14581825Y-12952150D02*
X14600872Y-12961674D01*
X14848492Y-13009293D02*
X15000873Y-13009293D01*
X14924682Y-13085484D02*
X14924682Y-12933103D01*
X15238968Y-12904531D02*
X15248492Y-12895008D01*
X15248492Y-12895008D02*
X15267539Y-12885484D01*
X15267539Y-12885484D02*
X15315158Y-12885484D01*
X15315158Y-12885484D02*
X15334206Y-12895008D01*
X15334206Y-12895008D02*
X15343730Y-12904531D01*
X15343730Y-12904531D02*
X15353253Y-12923579D01*
X15353253Y-12923579D02*
X15353253Y-12942627D01*
X15353253Y-12942627D02*
X15343730Y-12971198D01*
X15343730Y-12971198D02*
X15229444Y-13085484D01*
X15229444Y-13085484D02*
X15353253Y-13085484D01*
X15581825Y-13075960D02*
X15600873Y-13085484D01*
X15600873Y-13085484D02*
X15638968Y-13085484D01*
X15638968Y-13085484D02*
X15658015Y-13075960D01*
X15658015Y-13075960D02*
X15667539Y-13056912D01*
X15667539Y-13056912D02*
X15667539Y-13047388D01*
X15667539Y-13047388D02*
X15658015Y-13028341D01*
X15658015Y-13028341D02*
X15638968Y-13018817D01*
X15638968Y-13018817D02*
X15610396Y-13018817D01*
X15610396Y-13018817D02*
X15591349Y-13009293D01*
X15591349Y-13009293D02*
X15581825Y-12990246D01*
X15581825Y-12990246D02*
X15581825Y-12980722D01*
X15581825Y-12980722D02*
X15591349Y-12961674D01*
X15591349Y-12961674D02*
X15610396Y-12952150D01*
X15610396Y-12952150D02*
X15638968Y-12952150D01*
X15638968Y-12952150D02*
X15658015Y-12961674D01*
X15781825Y-13085484D02*
X15762777Y-13075960D01*
X15762777Y-13075960D02*
X15753254Y-13056912D01*
X15753254Y-13056912D02*
X15753254Y-12885484D01*
X15886587Y-13085484D02*
X15867539Y-13075960D01*
X15867539Y-13075960D02*
X15858015Y-13066436D01*
X15858015Y-13066436D02*
X15848492Y-13047388D01*
X15848492Y-13047388D02*
X15848492Y-12990246D01*
X15848492Y-12990246D02*
X15858015Y-12971198D01*
X15858015Y-12971198D02*
X15867539Y-12961674D01*
X15867539Y-12961674D02*
X15886587Y-12952150D01*
X15886587Y-12952150D02*
X15915158Y-12952150D01*
X15915158Y-12952150D02*
X15934206Y-12961674D01*
X15934206Y-12961674D02*
X15943730Y-12971198D01*
X15943730Y-12971198D02*
X15953254Y-12990246D01*
X15953254Y-12990246D02*
X15953254Y-13047388D01*
X15953254Y-13047388D02*
X15943730Y-13066436D01*
X15943730Y-13066436D02*
X15934206Y-13075960D01*
X15934206Y-13075960D02*
X15915158Y-13085484D01*
X15915158Y-13085484D02*
X15886587Y-13085484D01*
X16010396Y-12952150D02*
X16086587Y-12952150D01*
X16038968Y-12885484D02*
X16038968Y-13056912D01*
X16038968Y-13056912D02*
X16048492Y-13075960D01*
X16048492Y-13075960D02*
X16067539Y-13085484D01*
X16067539Y-13085484D02*
X16086587Y-13085484D01*
X16143730Y-13075960D02*
X16162777Y-13085484D01*
X16162777Y-13085484D02*
X16200873Y-13085484D01*
X16200873Y-13085484D02*
X16219920Y-13075960D01*
X16219920Y-13075960D02*
X16229444Y-13056912D01*
X16229444Y-13056912D02*
X16229444Y-13047388D01*
X16229444Y-13047388D02*
X16219920Y-13028341D01*
X16219920Y-13028341D02*
X16200873Y-13018817D01*
X16200873Y-13018817D02*
X16172301Y-13018817D01*
X16172301Y-13018817D02*
X16153254Y-13009293D01*
X16153254Y-13009293D02*
X16143730Y-12990246D01*
X16143730Y-12990246D02*
X16143730Y-12980722D01*
X16143730Y-12980722D02*
X16153254Y-12961674D01*
X16153254Y-12961674D02*
X16172301Y-12952150D01*
X16172301Y-12952150D02*
X16200873Y-12952150D01*
X16200873Y-12952150D02*
X16219920Y-12961674D01*
X16296111Y-13161674D02*
X16305635Y-13152150D01*
X16305635Y-13152150D02*
X16324682Y-13123579D01*
X16324682Y-13123579D02*
X16334206Y-13104531D01*
X16334206Y-13104531D02*
X16343730Y-13075960D01*
X16343730Y-13075960D02*
X16353254Y-13028341D01*
X16353254Y-13028341D02*
X16353254Y-12990246D01*
X16353254Y-12990246D02*
X16343730Y-12942627D01*
X16343730Y-12942627D02*
X16334206Y-12914055D01*
X16334206Y-12914055D02*
X16324682Y-12895008D01*
X16324682Y-12895008D02*
X16305635Y-12866436D01*
X16305635Y-12866436D02*
X16296111Y-12856912D01*
D15*
X9867000Y-13293000D02*
X9902000Y-13258000D01*
X9867000Y-13223000D01*
X9832000Y-13258000D01*
X9867000Y-13293000D01*
D11*
X10200872Y-13149484D02*
X10219920Y-13149484D01*
X10219920Y-13149484D02*
X10238967Y-13159008D01*
X10238967Y-13159008D02*
X10248491Y-13168531D01*
X10248491Y-13168531D02*
X10258015Y-13187579D01*
X10258015Y-13187579D02*
X10267539Y-13225674D01*
X10267539Y-13225674D02*
X10267539Y-13273293D01*
X10267539Y-13273293D02*
X10258015Y-13311388D01*
X10258015Y-13311388D02*
X10248491Y-13330436D01*
X10248491Y-13330436D02*
X10238967Y-13339960D01*
X10238967Y-13339960D02*
X10219920Y-13349484D01*
X10219920Y-13349484D02*
X10200872Y-13349484D01*
X10200872Y-13349484D02*
X10181824Y-13339960D01*
X10181824Y-13339960D02*
X10172301Y-13330436D01*
X10172301Y-13330436D02*
X10162777Y-13311388D01*
X10162777Y-13311388D02*
X10153253Y-13273293D01*
X10153253Y-13273293D02*
X10153253Y-13225674D01*
X10153253Y-13225674D02*
X10162777Y-13187579D01*
X10162777Y-13187579D02*
X10172301Y-13168531D01*
X10172301Y-13168531D02*
X10181824Y-13159008D01*
X10181824Y-13159008D02*
X10200872Y-13149484D01*
X10353253Y-13330436D02*
X10362777Y-13339960D01*
X10362777Y-13339960D02*
X10353253Y-13349484D01*
X10353253Y-13349484D02*
X10343729Y-13339960D01*
X10343729Y-13339960D02*
X10353253Y-13330436D01*
X10353253Y-13330436D02*
X10353253Y-13349484D01*
X10429444Y-13149484D02*
X10562777Y-13149484D01*
X10562777Y-13149484D02*
X10477063Y-13349484D01*
X10677063Y-13149484D02*
X10696110Y-13149484D01*
X10696110Y-13149484D02*
X10715158Y-13159008D01*
X10715158Y-13159008D02*
X10724682Y-13168531D01*
X10724682Y-13168531D02*
X10734205Y-13187579D01*
X10734205Y-13187579D02*
X10743729Y-13225674D01*
X10743729Y-13225674D02*
X10743729Y-13273293D01*
X10743729Y-13273293D02*
X10734205Y-13311388D01*
X10734205Y-13311388D02*
X10724682Y-13330436D01*
X10724682Y-13330436D02*
X10715158Y-13339960D01*
X10715158Y-13339960D02*
X10696110Y-13349484D01*
X10696110Y-13349484D02*
X10677063Y-13349484D01*
X10677063Y-13349484D02*
X10658015Y-13339960D01*
X10658015Y-13339960D02*
X10648491Y-13330436D01*
X10648491Y-13330436D02*
X10638967Y-13311388D01*
X10638967Y-13311388D02*
X10629444Y-13273293D01*
X10629444Y-13273293D02*
X10629444Y-13225674D01*
X10629444Y-13225674D02*
X10638967Y-13187579D01*
X10638967Y-13187579D02*
X10648491Y-13168531D01*
X10648491Y-13168531D02*
X10658015Y-13159008D01*
X10658015Y-13159008D02*
X10677063Y-13149484D01*
X10867539Y-13149484D02*
X10886586Y-13149484D01*
X10886586Y-13149484D02*
X10905634Y-13159008D01*
X10905634Y-13159008D02*
X10915158Y-13168531D01*
X10915158Y-13168531D02*
X10924682Y-13187579D01*
X10924682Y-13187579D02*
X10934205Y-13225674D01*
X10934205Y-13225674D02*
X10934205Y-13273293D01*
X10934205Y-13273293D02*
X10924682Y-13311388D01*
X10924682Y-13311388D02*
X10915158Y-13330436D01*
X10915158Y-13330436D02*
X10905634Y-13339960D01*
X10905634Y-13339960D02*
X10886586Y-13349484D01*
X10886586Y-13349484D02*
X10867539Y-13349484D01*
X10867539Y-13349484D02*
X10848491Y-13339960D01*
X10848491Y-13339960D02*
X10838967Y-13330436D01*
X10838967Y-13330436D02*
X10829444Y-13311388D01*
X10829444Y-13311388D02*
X10819920Y-13273293D01*
X10819920Y-13273293D02*
X10819920Y-13225674D01*
X10819920Y-13225674D02*
X10829444Y-13187579D01*
X10829444Y-13187579D02*
X10838967Y-13168531D01*
X10838967Y-13168531D02*
X10848491Y-13159008D01*
X10848491Y-13159008D02*
X10867539Y-13149484D01*
X11019920Y-13349484D02*
X11019920Y-13216150D01*
X11019920Y-13235198D02*
X11029444Y-13225674D01*
X11029444Y-13225674D02*
X11048491Y-13216150D01*
X11048491Y-13216150D02*
X11077063Y-13216150D01*
X11077063Y-13216150D02*
X11096110Y-13225674D01*
X11096110Y-13225674D02*
X11105634Y-13244722D01*
X11105634Y-13244722D02*
X11105634Y-13349484D01*
X11105634Y-13244722D02*
X11115158Y-13225674D01*
X11115158Y-13225674D02*
X11134205Y-13216150D01*
X11134205Y-13216150D02*
X11162777Y-13216150D01*
X11162777Y-13216150D02*
X11181825Y-13225674D01*
X11181825Y-13225674D02*
X11191348Y-13244722D01*
X11191348Y-13244722D02*
X11191348Y-13349484D01*
X11286586Y-13349484D02*
X11286586Y-13216150D01*
X11286586Y-13235198D02*
X11296110Y-13225674D01*
X11296110Y-13225674D02*
X11315158Y-13216150D01*
X11315158Y-13216150D02*
X11343729Y-13216150D01*
X11343729Y-13216150D02*
X11362777Y-13225674D01*
X11362777Y-13225674D02*
X11372301Y-13244722D01*
X11372301Y-13244722D02*
X11372301Y-13349484D01*
X11372301Y-13244722D02*
X11381824Y-13225674D01*
X11381824Y-13225674D02*
X11400872Y-13216150D01*
X11400872Y-13216150D02*
X11429443Y-13216150D01*
X11429443Y-13216150D02*
X11448491Y-13225674D01*
X11448491Y-13225674D02*
X11458015Y-13244722D01*
X11458015Y-13244722D02*
X11458015Y-13349484D01*
X11848491Y-13139960D02*
X11677063Y-13397103D01*
X12105634Y-13149484D02*
X12124682Y-13149484D01*
X12124682Y-13149484D02*
X12143729Y-13159008D01*
X12143729Y-13159008D02*
X12153253Y-13168531D01*
X12153253Y-13168531D02*
X12162777Y-13187579D01*
X12162777Y-13187579D02*
X12172301Y-13225674D01*
X12172301Y-13225674D02*
X12172301Y-13273293D01*
X12172301Y-13273293D02*
X12162777Y-13311388D01*
X12162777Y-13311388D02*
X12153253Y-13330436D01*
X12153253Y-13330436D02*
X12143729Y-13339960D01*
X12143729Y-13339960D02*
X12124682Y-13349484D01*
X12124682Y-13349484D02*
X12105634Y-13349484D01*
X12105634Y-13349484D02*
X12086586Y-13339960D01*
X12086586Y-13339960D02*
X12077063Y-13330436D01*
X12077063Y-13330436D02*
X12067539Y-13311388D01*
X12067539Y-13311388D02*
X12058015Y-13273293D01*
X12058015Y-13273293D02*
X12058015Y-13225674D01*
X12058015Y-13225674D02*
X12067539Y-13187579D01*
X12067539Y-13187579D02*
X12077063Y-13168531D01*
X12077063Y-13168531D02*
X12086586Y-13159008D01*
X12086586Y-13159008D02*
X12105634Y-13149484D01*
X12258015Y-13330436D02*
X12267539Y-13339960D01*
X12267539Y-13339960D02*
X12258015Y-13349484D01*
X12258015Y-13349484D02*
X12248491Y-13339960D01*
X12248491Y-13339960D02*
X12258015Y-13330436D01*
X12258015Y-13330436D02*
X12258015Y-13349484D01*
X12391348Y-13149484D02*
X12410396Y-13149484D01*
X12410396Y-13149484D02*
X12429444Y-13159008D01*
X12429444Y-13159008D02*
X12438967Y-13168531D01*
X12438967Y-13168531D02*
X12448491Y-13187579D01*
X12448491Y-13187579D02*
X12458015Y-13225674D01*
X12458015Y-13225674D02*
X12458015Y-13273293D01*
X12458015Y-13273293D02*
X12448491Y-13311388D01*
X12448491Y-13311388D02*
X12438967Y-13330436D01*
X12438967Y-13330436D02*
X12429444Y-13339960D01*
X12429444Y-13339960D02*
X12410396Y-13349484D01*
X12410396Y-13349484D02*
X12391348Y-13349484D01*
X12391348Y-13349484D02*
X12372301Y-13339960D01*
X12372301Y-13339960D02*
X12362777Y-13330436D01*
X12362777Y-13330436D02*
X12353253Y-13311388D01*
X12353253Y-13311388D02*
X12343729Y-13273293D01*
X12343729Y-13273293D02*
X12343729Y-13225674D01*
X12343729Y-13225674D02*
X12353253Y-13187579D01*
X12353253Y-13187579D02*
X12362777Y-13168531D01*
X12362777Y-13168531D02*
X12372301Y-13159008D01*
X12372301Y-13159008D02*
X12391348Y-13149484D01*
X12534206Y-13168531D02*
X12543729Y-13159008D01*
X12543729Y-13159008D02*
X12562777Y-13149484D01*
X12562777Y-13149484D02*
X12610396Y-13149484D01*
X12610396Y-13149484D02*
X12629444Y-13159008D01*
X12629444Y-13159008D02*
X12638967Y-13168531D01*
X12638967Y-13168531D02*
X12648491Y-13187579D01*
X12648491Y-13187579D02*
X12648491Y-13206627D01*
X12648491Y-13206627D02*
X12638967Y-13235198D01*
X12638967Y-13235198D02*
X12524682Y-13349484D01*
X12524682Y-13349484D02*
X12648491Y-13349484D01*
X12715158Y-13149484D02*
X12848491Y-13149484D01*
X12848491Y-13149484D02*
X12762777Y-13349484D01*
X13010396Y-13149484D02*
X12972301Y-13149484D01*
X12972301Y-13149484D02*
X12953253Y-13159008D01*
X12953253Y-13159008D02*
X12943729Y-13168531D01*
X12943729Y-13168531D02*
X12924682Y-13197103D01*
X12924682Y-13197103D02*
X12915158Y-13235198D01*
X12915158Y-13235198D02*
X12915158Y-13311388D01*
X12915158Y-13311388D02*
X12924682Y-13330436D01*
X12924682Y-13330436D02*
X12934206Y-13339960D01*
X12934206Y-13339960D02*
X12953253Y-13349484D01*
X12953253Y-13349484D02*
X12991348Y-13349484D01*
X12991348Y-13349484D02*
X13010396Y-13339960D01*
X13010396Y-13339960D02*
X13019920Y-13330436D01*
X13019920Y-13330436D02*
X13029444Y-13311388D01*
X13029444Y-13311388D02*
X13029444Y-13263769D01*
X13029444Y-13263769D02*
X13019920Y-13244722D01*
X13019920Y-13244722D02*
X13010396Y-13235198D01*
X13010396Y-13235198D02*
X12991348Y-13225674D01*
X12991348Y-13225674D02*
X12953253Y-13225674D01*
X12953253Y-13225674D02*
X12934206Y-13235198D01*
X12934206Y-13235198D02*
X12924682Y-13244722D01*
X12924682Y-13244722D02*
X12915158Y-13263769D01*
X13105634Y-13149484D02*
X13105634Y-13187579D01*
X13181825Y-13149484D02*
X13181825Y-13187579D01*
X13477063Y-13425674D02*
X13467539Y-13416150D01*
X13467539Y-13416150D02*
X13448491Y-13387579D01*
X13448491Y-13387579D02*
X13438968Y-13368531D01*
X13438968Y-13368531D02*
X13429444Y-13339960D01*
X13429444Y-13339960D02*
X13419920Y-13292341D01*
X13419920Y-13292341D02*
X13419920Y-13254246D01*
X13419920Y-13254246D02*
X13429444Y-13206627D01*
X13429444Y-13206627D02*
X13438968Y-13178055D01*
X13438968Y-13178055D02*
X13448491Y-13159008D01*
X13448491Y-13159008D02*
X13467539Y-13130436D01*
X13467539Y-13130436D02*
X13477063Y-13120912D01*
X13591348Y-13149484D02*
X13610396Y-13149484D01*
X13610396Y-13149484D02*
X13629444Y-13159008D01*
X13629444Y-13159008D02*
X13638968Y-13168531D01*
X13638968Y-13168531D02*
X13648491Y-13187579D01*
X13648491Y-13187579D02*
X13658015Y-13225674D01*
X13658015Y-13225674D02*
X13658015Y-13273293D01*
X13658015Y-13273293D02*
X13648491Y-13311388D01*
X13648491Y-13311388D02*
X13638968Y-13330436D01*
X13638968Y-13330436D02*
X13629444Y-13339960D01*
X13629444Y-13339960D02*
X13610396Y-13349484D01*
X13610396Y-13349484D02*
X13591348Y-13349484D01*
X13591348Y-13349484D02*
X13572301Y-13339960D01*
X13572301Y-13339960D02*
X13562777Y-13330436D01*
X13562777Y-13330436D02*
X13553253Y-13311388D01*
X13553253Y-13311388D02*
X13543729Y-13273293D01*
X13543729Y-13273293D02*
X13543729Y-13225674D01*
X13543729Y-13225674D02*
X13553253Y-13187579D01*
X13553253Y-13187579D02*
X13562777Y-13168531D01*
X13562777Y-13168531D02*
X13572301Y-13159008D01*
X13572301Y-13159008D02*
X13591348Y-13149484D01*
X13896110Y-13349484D02*
X13896110Y-13149484D01*
X13981825Y-13349484D02*
X13981825Y-13244722D01*
X13981825Y-13244722D02*
X13972301Y-13225674D01*
X13972301Y-13225674D02*
X13953253Y-13216150D01*
X13953253Y-13216150D02*
X13924682Y-13216150D01*
X13924682Y-13216150D02*
X13905634Y-13225674D01*
X13905634Y-13225674D02*
X13896110Y-13235198D01*
X14105634Y-13349484D02*
X14086587Y-13339960D01*
X14086587Y-13339960D02*
X14077063Y-13330436D01*
X14077063Y-13330436D02*
X14067539Y-13311388D01*
X14067539Y-13311388D02*
X14067539Y-13254246D01*
X14067539Y-13254246D02*
X14077063Y-13235198D01*
X14077063Y-13235198D02*
X14086587Y-13225674D01*
X14086587Y-13225674D02*
X14105634Y-13216150D01*
X14105634Y-13216150D02*
X14134206Y-13216150D01*
X14134206Y-13216150D02*
X14153253Y-13225674D01*
X14153253Y-13225674D02*
X14162777Y-13235198D01*
X14162777Y-13235198D02*
X14172301Y-13254246D01*
X14172301Y-13254246D02*
X14172301Y-13311388D01*
X14172301Y-13311388D02*
X14162777Y-13330436D01*
X14162777Y-13330436D02*
X14153253Y-13339960D01*
X14153253Y-13339960D02*
X14134206Y-13349484D01*
X14134206Y-13349484D02*
X14105634Y-13349484D01*
X14286587Y-13349484D02*
X14267539Y-13339960D01*
X14267539Y-13339960D02*
X14258015Y-13320912D01*
X14258015Y-13320912D02*
X14258015Y-13149484D01*
X14438968Y-13339960D02*
X14419920Y-13349484D01*
X14419920Y-13349484D02*
X14381825Y-13349484D01*
X14381825Y-13349484D02*
X14362777Y-13339960D01*
X14362777Y-13339960D02*
X14353253Y-13320912D01*
X14353253Y-13320912D02*
X14353253Y-13244722D01*
X14353253Y-13244722D02*
X14362777Y-13225674D01*
X14362777Y-13225674D02*
X14381825Y-13216150D01*
X14381825Y-13216150D02*
X14419920Y-13216150D01*
X14419920Y-13216150D02*
X14438968Y-13225674D01*
X14438968Y-13225674D02*
X14448491Y-13244722D01*
X14448491Y-13244722D02*
X14448491Y-13263769D01*
X14448491Y-13263769D02*
X14353253Y-13282817D01*
X14524682Y-13339960D02*
X14543730Y-13349484D01*
X14543730Y-13349484D02*
X14581825Y-13349484D01*
X14581825Y-13349484D02*
X14600872Y-13339960D01*
X14600872Y-13339960D02*
X14610396Y-13320912D01*
X14610396Y-13320912D02*
X14610396Y-13311388D01*
X14610396Y-13311388D02*
X14600872Y-13292341D01*
X14600872Y-13292341D02*
X14581825Y-13282817D01*
X14581825Y-13282817D02*
X14553253Y-13282817D01*
X14553253Y-13282817D02*
X14534206Y-13273293D01*
X14534206Y-13273293D02*
X14524682Y-13254246D01*
X14524682Y-13254246D02*
X14524682Y-13244722D01*
X14524682Y-13244722D02*
X14534206Y-13225674D01*
X14534206Y-13225674D02*
X14553253Y-13216150D01*
X14553253Y-13216150D02*
X14581825Y-13216150D01*
X14581825Y-13216150D02*
X14600872Y-13225674D01*
X14848492Y-13273293D02*
X15000873Y-13273293D01*
X14924682Y-13349484D02*
X14924682Y-13197103D01*
X15238968Y-13168531D02*
X15248492Y-13159008D01*
X15248492Y-13159008D02*
X15267539Y-13149484D01*
X15267539Y-13149484D02*
X15315158Y-13149484D01*
X15315158Y-13149484D02*
X15334206Y-13159008D01*
X15334206Y-13159008D02*
X15343730Y-13168531D01*
X15343730Y-13168531D02*
X15353253Y-13187579D01*
X15353253Y-13187579D02*
X15353253Y-13206627D01*
X15353253Y-13206627D02*
X15343730Y-13235198D01*
X15343730Y-13235198D02*
X15229444Y-13349484D01*
X15229444Y-13349484D02*
X15353253Y-13349484D01*
X15581825Y-13339960D02*
X15600873Y-13349484D01*
X15600873Y-13349484D02*
X15638968Y-13349484D01*
X15638968Y-13349484D02*
X15658015Y-13339960D01*
X15658015Y-13339960D02*
X15667539Y-13320912D01*
X15667539Y-13320912D02*
X15667539Y-13311388D01*
X15667539Y-13311388D02*
X15658015Y-13292341D01*
X15658015Y-13292341D02*
X15638968Y-13282817D01*
X15638968Y-13282817D02*
X15610396Y-13282817D01*
X15610396Y-13282817D02*
X15591349Y-13273293D01*
X15591349Y-13273293D02*
X15581825Y-13254246D01*
X15581825Y-13254246D02*
X15581825Y-13244722D01*
X15581825Y-13244722D02*
X15591349Y-13225674D01*
X15591349Y-13225674D02*
X15610396Y-13216150D01*
X15610396Y-13216150D02*
X15638968Y-13216150D01*
X15638968Y-13216150D02*
X15658015Y-13225674D01*
X15781825Y-13349484D02*
X15762777Y-13339960D01*
X15762777Y-13339960D02*
X15753254Y-13320912D01*
X15753254Y-13320912D02*
X15753254Y-13149484D01*
X15886587Y-13349484D02*
X15867539Y-13339960D01*
X15867539Y-13339960D02*
X15858015Y-13330436D01*
X15858015Y-13330436D02*
X15848492Y-13311388D01*
X15848492Y-13311388D02*
X15848492Y-13254246D01*
X15848492Y-13254246D02*
X15858015Y-13235198D01*
X15858015Y-13235198D02*
X15867539Y-13225674D01*
X15867539Y-13225674D02*
X15886587Y-13216150D01*
X15886587Y-13216150D02*
X15915158Y-13216150D01*
X15915158Y-13216150D02*
X15934206Y-13225674D01*
X15934206Y-13225674D02*
X15943730Y-13235198D01*
X15943730Y-13235198D02*
X15953254Y-13254246D01*
X15953254Y-13254246D02*
X15953254Y-13311388D01*
X15953254Y-13311388D02*
X15943730Y-13330436D01*
X15943730Y-13330436D02*
X15934206Y-13339960D01*
X15934206Y-13339960D02*
X15915158Y-13349484D01*
X15915158Y-13349484D02*
X15886587Y-13349484D01*
X16010396Y-13216150D02*
X16086587Y-13216150D01*
X16038968Y-13149484D02*
X16038968Y-13320912D01*
X16038968Y-13320912D02*
X16048492Y-13339960D01*
X16048492Y-13339960D02*
X16067539Y-13349484D01*
X16067539Y-13349484D02*
X16086587Y-13349484D01*
X16143730Y-13339960D02*
X16162777Y-13349484D01*
X16162777Y-13349484D02*
X16200873Y-13349484D01*
X16200873Y-13349484D02*
X16219920Y-13339960D01*
X16219920Y-13339960D02*
X16229444Y-13320912D01*
X16229444Y-13320912D02*
X16229444Y-13311388D01*
X16229444Y-13311388D02*
X16219920Y-13292341D01*
X16219920Y-13292341D02*
X16200873Y-13282817D01*
X16200873Y-13282817D02*
X16172301Y-13282817D01*
X16172301Y-13282817D02*
X16153254Y-13273293D01*
X16153254Y-13273293D02*
X16143730Y-13254246D01*
X16143730Y-13254246D02*
X16143730Y-13244722D01*
X16143730Y-13244722D02*
X16153254Y-13225674D01*
X16153254Y-13225674D02*
X16172301Y-13216150D01*
X16172301Y-13216150D02*
X16200873Y-13216150D01*
X16200873Y-13216150D02*
X16219920Y-13225674D01*
X16296111Y-13425674D02*
X16305635Y-13416150D01*
X16305635Y-13416150D02*
X16324682Y-13387579D01*
X16324682Y-13387579D02*
X16334206Y-13368531D01*
X16334206Y-13368531D02*
X16343730Y-13339960D01*
X16343730Y-13339960D02*
X16353254Y-13292341D01*
X16353254Y-13292341D02*
X16353254Y-13254246D01*
X16353254Y-13254246D02*
X16343730Y-13206627D01*
X16343730Y-13206627D02*
X16334206Y-13178055D01*
X16334206Y-13178055D02*
X16324682Y-13159008D01*
X16324682Y-13159008D02*
X16305635Y-13130436D01*
X16305635Y-13130436D02*
X16296111Y-13120912D01*
D10*
X9802000Y-13472000D02*
X9902000Y-13572000D01*
X9902000Y-13472000D02*
X9802000Y-13572000D01*
X9902000Y-13522000D02*
G75*
G03*
X9902000Y-13522000I-50000J0D01*
G01*
D11*
X10267539Y-13613484D02*
X10153253Y-13613484D01*
X10210396Y-13613484D02*
X10210396Y-13413484D01*
X10210396Y-13413484D02*
X10191348Y-13442055D01*
X10191348Y-13442055D02*
X10172301Y-13461103D01*
X10172301Y-13461103D02*
X10153253Y-13470627D01*
X10353253Y-13594436D02*
X10362777Y-13603960D01*
X10362777Y-13603960D02*
X10353253Y-13613484D01*
X10353253Y-13613484D02*
X10343729Y-13603960D01*
X10343729Y-13603960D02*
X10353253Y-13594436D01*
X10353253Y-13594436D02*
X10353253Y-13613484D01*
X10486586Y-13413484D02*
X10505634Y-13413484D01*
X10505634Y-13413484D02*
X10524682Y-13423008D01*
X10524682Y-13423008D02*
X10534205Y-13432531D01*
X10534205Y-13432531D02*
X10543729Y-13451579D01*
X10543729Y-13451579D02*
X10553253Y-13489674D01*
X10553253Y-13489674D02*
X10553253Y-13537293D01*
X10553253Y-13537293D02*
X10543729Y-13575388D01*
X10543729Y-13575388D02*
X10534205Y-13594436D01*
X10534205Y-13594436D02*
X10524682Y-13603960D01*
X10524682Y-13603960D02*
X10505634Y-13613484D01*
X10505634Y-13613484D02*
X10486586Y-13613484D01*
X10486586Y-13613484D02*
X10467539Y-13603960D01*
X10467539Y-13603960D02*
X10458015Y-13594436D01*
X10458015Y-13594436D02*
X10448491Y-13575388D01*
X10448491Y-13575388D02*
X10438967Y-13537293D01*
X10438967Y-13537293D02*
X10438967Y-13489674D01*
X10438967Y-13489674D02*
X10448491Y-13451579D01*
X10448491Y-13451579D02*
X10458015Y-13432531D01*
X10458015Y-13432531D02*
X10467539Y-13423008D01*
X10467539Y-13423008D02*
X10486586Y-13413484D01*
X10677063Y-13413484D02*
X10696110Y-13413484D01*
X10696110Y-13413484D02*
X10715158Y-13423008D01*
X10715158Y-13423008D02*
X10724682Y-13432531D01*
X10724682Y-13432531D02*
X10734205Y-13451579D01*
X10734205Y-13451579D02*
X10743729Y-13489674D01*
X10743729Y-13489674D02*
X10743729Y-13537293D01*
X10743729Y-13537293D02*
X10734205Y-13575388D01*
X10734205Y-13575388D02*
X10724682Y-13594436D01*
X10724682Y-13594436D02*
X10715158Y-13603960D01*
X10715158Y-13603960D02*
X10696110Y-13613484D01*
X10696110Y-13613484D02*
X10677063Y-13613484D01*
X10677063Y-13613484D02*
X10658015Y-13603960D01*
X10658015Y-13603960D02*
X10648491Y-13594436D01*
X10648491Y-13594436D02*
X10638967Y-13575388D01*
X10638967Y-13575388D02*
X10629444Y-13537293D01*
X10629444Y-13537293D02*
X10629444Y-13489674D01*
X10629444Y-13489674D02*
X10638967Y-13451579D01*
X10638967Y-13451579D02*
X10648491Y-13432531D01*
X10648491Y-13432531D02*
X10658015Y-13423008D01*
X10658015Y-13423008D02*
X10677063Y-13413484D01*
X10867539Y-13413484D02*
X10886586Y-13413484D01*
X10886586Y-13413484D02*
X10905634Y-13423008D01*
X10905634Y-13423008D02*
X10915158Y-13432531D01*
X10915158Y-13432531D02*
X10924682Y-13451579D01*
X10924682Y-13451579D02*
X10934205Y-13489674D01*
X10934205Y-13489674D02*
X10934205Y-13537293D01*
X10934205Y-13537293D02*
X10924682Y-13575388D01*
X10924682Y-13575388D02*
X10915158Y-13594436D01*
X10915158Y-13594436D02*
X10905634Y-13603960D01*
X10905634Y-13603960D02*
X10886586Y-13613484D01*
X10886586Y-13613484D02*
X10867539Y-13613484D01*
X10867539Y-13613484D02*
X10848491Y-13603960D01*
X10848491Y-13603960D02*
X10838967Y-13594436D01*
X10838967Y-13594436D02*
X10829444Y-13575388D01*
X10829444Y-13575388D02*
X10819920Y-13537293D01*
X10819920Y-13537293D02*
X10819920Y-13489674D01*
X10819920Y-13489674D02*
X10829444Y-13451579D01*
X10829444Y-13451579D02*
X10838967Y-13432531D01*
X10838967Y-13432531D02*
X10848491Y-13423008D01*
X10848491Y-13423008D02*
X10867539Y-13413484D01*
X11019920Y-13613484D02*
X11019920Y-13480150D01*
X11019920Y-13499198D02*
X11029444Y-13489674D01*
X11029444Y-13489674D02*
X11048491Y-13480150D01*
X11048491Y-13480150D02*
X11077063Y-13480150D01*
X11077063Y-13480150D02*
X11096110Y-13489674D01*
X11096110Y-13489674D02*
X11105634Y-13508722D01*
X11105634Y-13508722D02*
X11105634Y-13613484D01*
X11105634Y-13508722D02*
X11115158Y-13489674D01*
X11115158Y-13489674D02*
X11134205Y-13480150D01*
X11134205Y-13480150D02*
X11162777Y-13480150D01*
X11162777Y-13480150D02*
X11181825Y-13489674D01*
X11181825Y-13489674D02*
X11191348Y-13508722D01*
X11191348Y-13508722D02*
X11191348Y-13613484D01*
X11286586Y-13613484D02*
X11286586Y-13480150D01*
X11286586Y-13499198D02*
X11296110Y-13489674D01*
X11296110Y-13489674D02*
X11315158Y-13480150D01*
X11315158Y-13480150D02*
X11343729Y-13480150D01*
X11343729Y-13480150D02*
X11362777Y-13489674D01*
X11362777Y-13489674D02*
X11372301Y-13508722D01*
X11372301Y-13508722D02*
X11372301Y-13613484D01*
X11372301Y-13508722D02*
X11381824Y-13489674D01*
X11381824Y-13489674D02*
X11400872Y-13480150D01*
X11400872Y-13480150D02*
X11429443Y-13480150D01*
X11429443Y-13480150D02*
X11448491Y-13489674D01*
X11448491Y-13489674D02*
X11458015Y-13508722D01*
X11458015Y-13508722D02*
X11458015Y-13613484D01*
X11848491Y-13403960D02*
X11677063Y-13661103D01*
X12105634Y-13413484D02*
X12124682Y-13413484D01*
X12124682Y-13413484D02*
X12143729Y-13423008D01*
X12143729Y-13423008D02*
X12153253Y-13432531D01*
X12153253Y-13432531D02*
X12162777Y-13451579D01*
X12162777Y-13451579D02*
X12172301Y-13489674D01*
X12172301Y-13489674D02*
X12172301Y-13537293D01*
X12172301Y-13537293D02*
X12162777Y-13575388D01*
X12162777Y-13575388D02*
X12153253Y-13594436D01*
X12153253Y-13594436D02*
X12143729Y-13603960D01*
X12143729Y-13603960D02*
X12124682Y-13613484D01*
X12124682Y-13613484D02*
X12105634Y-13613484D01*
X12105634Y-13613484D02*
X12086586Y-13603960D01*
X12086586Y-13603960D02*
X12077063Y-13594436D01*
X12077063Y-13594436D02*
X12067539Y-13575388D01*
X12067539Y-13575388D02*
X12058015Y-13537293D01*
X12058015Y-13537293D02*
X12058015Y-13489674D01*
X12058015Y-13489674D02*
X12067539Y-13451579D01*
X12067539Y-13451579D02*
X12077063Y-13432531D01*
X12077063Y-13432531D02*
X12086586Y-13423008D01*
X12086586Y-13423008D02*
X12105634Y-13413484D01*
X12258015Y-13594436D02*
X12267539Y-13603960D01*
X12267539Y-13603960D02*
X12258015Y-13613484D01*
X12258015Y-13613484D02*
X12248491Y-13603960D01*
X12248491Y-13603960D02*
X12258015Y-13594436D01*
X12258015Y-13594436D02*
X12258015Y-13613484D01*
X12391348Y-13413484D02*
X12410396Y-13413484D01*
X12410396Y-13413484D02*
X12429444Y-13423008D01*
X12429444Y-13423008D02*
X12438967Y-13432531D01*
X12438967Y-13432531D02*
X12448491Y-13451579D01*
X12448491Y-13451579D02*
X12458015Y-13489674D01*
X12458015Y-13489674D02*
X12458015Y-13537293D01*
X12458015Y-13537293D02*
X12448491Y-13575388D01*
X12448491Y-13575388D02*
X12438967Y-13594436D01*
X12438967Y-13594436D02*
X12429444Y-13603960D01*
X12429444Y-13603960D02*
X12410396Y-13613484D01*
X12410396Y-13613484D02*
X12391348Y-13613484D01*
X12391348Y-13613484D02*
X12372301Y-13603960D01*
X12372301Y-13603960D02*
X12362777Y-13594436D01*
X12362777Y-13594436D02*
X12353253Y-13575388D01*
X12353253Y-13575388D02*
X12343729Y-13537293D01*
X12343729Y-13537293D02*
X12343729Y-13489674D01*
X12343729Y-13489674D02*
X12353253Y-13451579D01*
X12353253Y-13451579D02*
X12362777Y-13432531D01*
X12362777Y-13432531D02*
X12372301Y-13423008D01*
X12372301Y-13423008D02*
X12391348Y-13413484D01*
X12524682Y-13413484D02*
X12648491Y-13413484D01*
X12648491Y-13413484D02*
X12581825Y-13489674D01*
X12581825Y-13489674D02*
X12610396Y-13489674D01*
X12610396Y-13489674D02*
X12629444Y-13499198D01*
X12629444Y-13499198D02*
X12638967Y-13508722D01*
X12638967Y-13508722D02*
X12648491Y-13527769D01*
X12648491Y-13527769D02*
X12648491Y-13575388D01*
X12648491Y-13575388D02*
X12638967Y-13594436D01*
X12638967Y-13594436D02*
X12629444Y-13603960D01*
X12629444Y-13603960D02*
X12610396Y-13613484D01*
X12610396Y-13613484D02*
X12553253Y-13613484D01*
X12553253Y-13613484D02*
X12534206Y-13603960D01*
X12534206Y-13603960D02*
X12524682Y-13594436D01*
X12743729Y-13613484D02*
X12781825Y-13613484D01*
X12781825Y-13613484D02*
X12800872Y-13603960D01*
X12800872Y-13603960D02*
X12810396Y-13594436D01*
X12810396Y-13594436D02*
X12829444Y-13565865D01*
X12829444Y-13565865D02*
X12838967Y-13527769D01*
X12838967Y-13527769D02*
X12838967Y-13451579D01*
X12838967Y-13451579D02*
X12829444Y-13432531D01*
X12829444Y-13432531D02*
X12819920Y-13423008D01*
X12819920Y-13423008D02*
X12800872Y-13413484D01*
X12800872Y-13413484D02*
X12762777Y-13413484D01*
X12762777Y-13413484D02*
X12743729Y-13423008D01*
X12743729Y-13423008D02*
X12734206Y-13432531D01*
X12734206Y-13432531D02*
X12724682Y-13451579D01*
X12724682Y-13451579D02*
X12724682Y-13499198D01*
X12724682Y-13499198D02*
X12734206Y-13518246D01*
X12734206Y-13518246D02*
X12743729Y-13527769D01*
X12743729Y-13527769D02*
X12762777Y-13537293D01*
X12762777Y-13537293D02*
X12800872Y-13537293D01*
X12800872Y-13537293D02*
X12819920Y-13527769D01*
X12819920Y-13527769D02*
X12829444Y-13518246D01*
X12829444Y-13518246D02*
X12838967Y-13499198D01*
X13010396Y-13480150D02*
X13010396Y-13613484D01*
X12962777Y-13403960D02*
X12915158Y-13546817D01*
X12915158Y-13546817D02*
X13038967Y-13546817D01*
X13105634Y-13413484D02*
X13105634Y-13451579D01*
X13181825Y-13413484D02*
X13181825Y-13451579D01*
X13477063Y-13689674D02*
X13467539Y-13680150D01*
X13467539Y-13680150D02*
X13448491Y-13651579D01*
X13448491Y-13651579D02*
X13438968Y-13632531D01*
X13438968Y-13632531D02*
X13429444Y-13603960D01*
X13429444Y-13603960D02*
X13419920Y-13556341D01*
X13419920Y-13556341D02*
X13419920Y-13518246D01*
X13419920Y-13518246D02*
X13429444Y-13470627D01*
X13429444Y-13470627D02*
X13438968Y-13442055D01*
X13438968Y-13442055D02*
X13448491Y-13423008D01*
X13448491Y-13423008D02*
X13467539Y-13394436D01*
X13467539Y-13394436D02*
X13477063Y-13384912D01*
X13534206Y-13413484D02*
X13658015Y-13413484D01*
X13658015Y-13413484D02*
X13591348Y-13489674D01*
X13591348Y-13489674D02*
X13619920Y-13489674D01*
X13619920Y-13489674D02*
X13638968Y-13499198D01*
X13638968Y-13499198D02*
X13648491Y-13508722D01*
X13648491Y-13508722D02*
X13658015Y-13527769D01*
X13658015Y-13527769D02*
X13658015Y-13575388D01*
X13658015Y-13575388D02*
X13648491Y-13594436D01*
X13648491Y-13594436D02*
X13638968Y-13603960D01*
X13638968Y-13603960D02*
X13619920Y-13613484D01*
X13619920Y-13613484D02*
X13562777Y-13613484D01*
X13562777Y-13613484D02*
X13543729Y-13603960D01*
X13543729Y-13603960D02*
X13534206Y-13594436D01*
X13772301Y-13499198D02*
X13753253Y-13489674D01*
X13753253Y-13489674D02*
X13743729Y-13480150D01*
X13743729Y-13480150D02*
X13734206Y-13461103D01*
X13734206Y-13461103D02*
X13734206Y-13451579D01*
X13734206Y-13451579D02*
X13743729Y-13432531D01*
X13743729Y-13432531D02*
X13753253Y-13423008D01*
X13753253Y-13423008D02*
X13772301Y-13413484D01*
X13772301Y-13413484D02*
X13810396Y-13413484D01*
X13810396Y-13413484D02*
X13829444Y-13423008D01*
X13829444Y-13423008D02*
X13838968Y-13432531D01*
X13838968Y-13432531D02*
X13848491Y-13451579D01*
X13848491Y-13451579D02*
X13848491Y-13461103D01*
X13848491Y-13461103D02*
X13838968Y-13480150D01*
X13838968Y-13480150D02*
X13829444Y-13489674D01*
X13829444Y-13489674D02*
X13810396Y-13499198D01*
X13810396Y-13499198D02*
X13772301Y-13499198D01*
X13772301Y-13499198D02*
X13753253Y-13508722D01*
X13753253Y-13508722D02*
X13743729Y-13518246D01*
X13743729Y-13518246D02*
X13734206Y-13537293D01*
X13734206Y-13537293D02*
X13734206Y-13575388D01*
X13734206Y-13575388D02*
X13743729Y-13594436D01*
X13743729Y-13594436D02*
X13753253Y-13603960D01*
X13753253Y-13603960D02*
X13772301Y-13613484D01*
X13772301Y-13613484D02*
X13810396Y-13613484D01*
X13810396Y-13613484D02*
X13829444Y-13603960D01*
X13829444Y-13603960D02*
X13838968Y-13594436D01*
X13838968Y-13594436D02*
X13848491Y-13575388D01*
X13848491Y-13575388D02*
X13848491Y-13537293D01*
X13848491Y-13537293D02*
X13838968Y-13518246D01*
X13838968Y-13518246D02*
X13829444Y-13508722D01*
X13829444Y-13508722D02*
X13810396Y-13499198D01*
X14086587Y-13613484D02*
X14086587Y-13413484D01*
X14172301Y-13613484D02*
X14172301Y-13508722D01*
X14172301Y-13508722D02*
X14162777Y-13489674D01*
X14162777Y-13489674D02*
X14143730Y-13480150D01*
X14143730Y-13480150D02*
X14115158Y-13480150D01*
X14115158Y-13480150D02*
X14096110Y-13489674D01*
X14096110Y-13489674D02*
X14086587Y-13499198D01*
X14296110Y-13613484D02*
X14277063Y-13603960D01*
X14277063Y-13603960D02*
X14267539Y-13594436D01*
X14267539Y-13594436D02*
X14258015Y-13575388D01*
X14258015Y-13575388D02*
X14258015Y-13518246D01*
X14258015Y-13518246D02*
X14267539Y-13499198D01*
X14267539Y-13499198D02*
X14277063Y-13489674D01*
X14277063Y-13489674D02*
X14296110Y-13480150D01*
X14296110Y-13480150D02*
X14324682Y-13480150D01*
X14324682Y-13480150D02*
X14343730Y-13489674D01*
X14343730Y-13489674D02*
X14353253Y-13499198D01*
X14353253Y-13499198D02*
X14362777Y-13518246D01*
X14362777Y-13518246D02*
X14362777Y-13575388D01*
X14362777Y-13575388D02*
X14353253Y-13594436D01*
X14353253Y-13594436D02*
X14343730Y-13603960D01*
X14343730Y-13603960D02*
X14324682Y-13613484D01*
X14324682Y-13613484D02*
X14296110Y-13613484D01*
X14477063Y-13613484D02*
X14458015Y-13603960D01*
X14458015Y-13603960D02*
X14448491Y-13584912D01*
X14448491Y-13584912D02*
X14448491Y-13413484D01*
X14629444Y-13603960D02*
X14610396Y-13613484D01*
X14610396Y-13613484D02*
X14572301Y-13613484D01*
X14572301Y-13613484D02*
X14553253Y-13603960D01*
X14553253Y-13603960D02*
X14543730Y-13584912D01*
X14543730Y-13584912D02*
X14543730Y-13508722D01*
X14543730Y-13508722D02*
X14553253Y-13489674D01*
X14553253Y-13489674D02*
X14572301Y-13480150D01*
X14572301Y-13480150D02*
X14610396Y-13480150D01*
X14610396Y-13480150D02*
X14629444Y-13489674D01*
X14629444Y-13489674D02*
X14638968Y-13508722D01*
X14638968Y-13508722D02*
X14638968Y-13527769D01*
X14638968Y-13527769D02*
X14543730Y-13546817D01*
X14715158Y-13603960D02*
X14734206Y-13613484D01*
X14734206Y-13613484D02*
X14772301Y-13613484D01*
X14772301Y-13613484D02*
X14791349Y-13603960D01*
X14791349Y-13603960D02*
X14800872Y-13584912D01*
X14800872Y-13584912D02*
X14800872Y-13575388D01*
X14800872Y-13575388D02*
X14791349Y-13556341D01*
X14791349Y-13556341D02*
X14772301Y-13546817D01*
X14772301Y-13546817D02*
X14743730Y-13546817D01*
X14743730Y-13546817D02*
X14724682Y-13537293D01*
X14724682Y-13537293D02*
X14715158Y-13518246D01*
X14715158Y-13518246D02*
X14715158Y-13508722D01*
X14715158Y-13508722D02*
X14724682Y-13489674D01*
X14724682Y-13489674D02*
X14743730Y-13480150D01*
X14743730Y-13480150D02*
X14772301Y-13480150D01*
X14772301Y-13480150D02*
X14791349Y-13489674D01*
X14867539Y-13689674D02*
X14877063Y-13680150D01*
X14877063Y-13680150D02*
X14896111Y-13651579D01*
X14896111Y-13651579D02*
X14905634Y-13632531D01*
X14905634Y-13632531D02*
X14915158Y-13603960D01*
X14915158Y-13603960D02*
X14924682Y-13556341D01*
X14924682Y-13556341D02*
X14924682Y-13518246D01*
X14924682Y-13518246D02*
X14915158Y-13470627D01*
X14915158Y-13470627D02*
X14905634Y-13442055D01*
X14905634Y-13442055D02*
X14896111Y-13423008D01*
X14896111Y-13423008D02*
X14877063Y-13394436D01*
X14877063Y-13394436D02*
X14867539Y-13384912D01*
M02*
