%TF.GenerationSoftware,KiCad,Pcbnew,7.0.8*%
%TF.CreationDate,2023-12-18T21:49:31+05:30*%
%TF.ProjectId,ESP WROOM 32-Devkit V4,45535020-5752-44f4-9f4d-2033322d4465,rev?*%
%TF.SameCoordinates,Original*%
%TF.FileFunction,Paste,Top*%
%TF.FilePolarity,Positive*%
%FSLAX46Y46*%
G04 Gerber Fmt 4.6, Leading zero omitted, Abs format (unit mm)*
G04 Created by KiCad (PCBNEW 7.0.8) date 2023-12-18 21:49:31*
%MOMM*%
%LPD*%
G01*
G04 APERTURE LIST*
G04 Aperture macros list*
%AMRoundRect*
0 Rectangle with rounded corners*
0 $1 Rounding radius*
0 $2 $3 $4 $5 $6 $7 $8 $9 X,Y pos of 4 corners*
0 Add a 4 corners polygon primitive as box body*
4,1,4,$2,$3,$4,$5,$6,$7,$8,$9,$2,$3,0*
0 Add four circle primitives for the rounded corners*
1,1,$1+$1,$2,$3*
1,1,$1+$1,$4,$5*
1,1,$1+$1,$6,$7*
1,1,$1+$1,$8,$9*
0 Add four rect primitives between the rounded corners*
20,1,$1+$1,$2,$3,$4,$5,0*
20,1,$1+$1,$4,$5,$6,$7,0*
20,1,$1+$1,$6,$7,$8,$9,0*
20,1,$1+$1,$8,$9,$2,$3,0*%
G04 Aperture macros list end*
%ADD10RoundRect,0.135000X-0.135000X-0.185000X0.135000X-0.185000X0.135000X0.185000X-0.135000X0.185000X0*%
%ADD11RoundRect,0.140000X-0.140000X-0.170000X0.140000X-0.170000X0.140000X0.170000X-0.140000X0.170000X0*%
%ADD12RoundRect,0.135000X0.185000X-0.135000X0.185000X0.135000X-0.185000X0.135000X-0.185000X-0.135000X0*%
%ADD13R,0.900000X1.400000*%
%ADD14R,1.500000X2.000000*%
%ADD15R,3.800000X2.000000*%
%ADD16RoundRect,0.135000X0.135000X0.185000X-0.135000X0.185000X-0.135000X-0.185000X0.135000X-0.185000X0*%
%ADD17RoundRect,0.155000X-0.212500X-0.155000X0.212500X-0.155000X0.212500X0.155000X-0.212500X0.155000X0*%
%ADD18RoundRect,0.225000X0.250000X-0.225000X0.250000X0.225000X-0.250000X0.225000X-0.250000X-0.225000X0*%
%ADD19R,0.800000X0.900000*%
%ADD20R,0.350000X0.600000*%
%ADD21R,0.500000X1.075000*%
%ADD22RoundRect,0.225000X-0.250000X0.225000X-0.250000X-0.225000X0.250000X-0.225000X0.250000X0.225000X0*%
%ADD23R,0.900000X1.500000*%
%ADD24R,1.500000X0.900000*%
%ADD25R,1.050000X1.050000*%
%ADD26R,1.650000X0.400000*%
%ADD27R,0.700000X1.825000*%
%ADD28R,2.000000X1.350000*%
%ADD29R,2.500000X1.430000*%
%ADD30RoundRect,0.225000X0.225000X0.250000X-0.225000X0.250000X-0.225000X-0.250000X0.225000X-0.250000X0*%
%ADD31RoundRect,0.079500X0.100500X-0.079500X0.100500X0.079500X-0.100500X0.079500X-0.100500X-0.079500X0*%
%ADD32R,1.000000X0.300000*%
%ADD33R,0.300000X1.000000*%
%ADD34R,3.350000X3.350000*%
G04 APERTURE END LIST*
D10*
%TO.C,R2*%
X124760000Y-102220000D03*
X125780000Y-102220000D03*
%TD*%
D11*
%TO.C,C4*%
X114922000Y-94890800D03*
X115882000Y-94890800D03*
%TD*%
D12*
%TO.C,R1*%
X114150000Y-99300000D03*
X114150000Y-98280000D03*
%TD*%
D13*
%TO.C,S1*%
X101877500Y-94310000D03*
X108377500Y-94310000D03*
%TD*%
D14*
%TO.C,U4*%
X125272800Y-92964000D03*
X122972800Y-92964000D03*
D15*
X122972800Y-99264000D03*
D14*
X120672800Y-92964000D03*
%TD*%
D10*
%TO.C,R9*%
X122283200Y-106616800D03*
X123303200Y-106616800D03*
%TD*%
D16*
%TO.C,R7*%
X111370000Y-103470000D03*
X110350000Y-103470000D03*
%TD*%
D17*
%TO.C,C5*%
X117080000Y-96810000D03*
X118215000Y-96810000D03*
%TD*%
D18*
%TO.C,C2*%
X113610000Y-94675000D03*
X113610000Y-93125000D03*
%TD*%
D11*
%TO.C,C9*%
X114880400Y-96801600D03*
X115840400Y-96801600D03*
%TD*%
D19*
%TO.C,Q2*%
X118120000Y-110560000D03*
X120020000Y-110560000D03*
X119070000Y-108560000D03*
%TD*%
D20*
%TO.C,Z2*%
X106699600Y-102932600D03*
X106049600Y-102932600D03*
%TD*%
%TO.C,Z3*%
X106725000Y-99427400D03*
X106075000Y-99427400D03*
%TD*%
D21*
%TO.C,D3*%
X111502200Y-97068600D03*
X111502200Y-99392600D03*
%TD*%
D11*
%TO.C,C8*%
X117230800Y-93011200D03*
X118190800Y-93011200D03*
%TD*%
D10*
%TO.C,R3*%
X124760000Y-104210000D03*
X125780000Y-104210000D03*
%TD*%
D20*
%TO.C,Z1*%
X106710000Y-101180000D03*
X106060000Y-101180000D03*
%TD*%
D22*
%TO.C,C1*%
X111770000Y-93135000D03*
X111770000Y-94685000D03*
%TD*%
D10*
%TO.C,R8*%
X122253200Y-104206800D03*
X123273200Y-104206800D03*
%TD*%
D23*
%TO.C,U1*%
X147180000Y-92510000D03*
X145910000Y-92510000D03*
X144640000Y-92510000D03*
X143370000Y-92510000D03*
X142100000Y-92510000D03*
X140830000Y-92510000D03*
X139560000Y-92510000D03*
X138290000Y-92510000D03*
X137020000Y-92510000D03*
X135750000Y-92510000D03*
X134480000Y-92510000D03*
X133210000Y-92510000D03*
X131940000Y-92510000D03*
X130670000Y-92510000D03*
D24*
X129420000Y-95550000D03*
X129420000Y-96820000D03*
X129420000Y-98090000D03*
X129420000Y-99360000D03*
X129420000Y-100630000D03*
X129420000Y-101900000D03*
X129420000Y-103170000D03*
X129420000Y-104440000D03*
X129420000Y-105710000D03*
X129420000Y-106980000D03*
D23*
X130670000Y-110010000D03*
X131940000Y-110010000D03*
X133210000Y-110010000D03*
X134480000Y-110010000D03*
X135750000Y-110010000D03*
X137020000Y-110010000D03*
X138290000Y-110010000D03*
X139560000Y-110010000D03*
X140830000Y-110010000D03*
X142100000Y-110010000D03*
X143370000Y-110010000D03*
X144640000Y-110010000D03*
X145910000Y-110010000D03*
X147180000Y-110010000D03*
D25*
X141365000Y-99055000D03*
X139840000Y-99055000D03*
X138315000Y-99055000D03*
X141365000Y-100580000D03*
X139840000Y-100580000D03*
X138315000Y-100580000D03*
X141365000Y-102105000D03*
X139840000Y-102105000D03*
X138315000Y-102105000D03*
%TD*%
D11*
%TO.C,C3*%
X114922000Y-92920800D03*
X115882000Y-92920800D03*
%TD*%
D19*
%TO.C,Q1*%
X115490000Y-108525000D03*
X113590000Y-108525000D03*
X114540000Y-110525000D03*
%TD*%
D26*
%TO.C,J1*%
X103702500Y-100030000D03*
X103702500Y-100680000D03*
X103702500Y-101330000D03*
X103702500Y-101980000D03*
X103702500Y-102630000D03*
D27*
X102502500Y-98380000D03*
D14*
X103802500Y-98480000D03*
D28*
X101752500Y-98600000D03*
D29*
X100552500Y-100370000D03*
X100552500Y-102290000D03*
D28*
X101752500Y-104080000D03*
D14*
X103822500Y-104230000D03*
D27*
X102502500Y-104330000D03*
%TD*%
D13*
%TO.C,S2*%
X102220000Y-108750000D03*
X108720000Y-108750000D03*
%TD*%
D10*
%TO.C,R10*%
X124812800Y-106606400D03*
X125832800Y-106606400D03*
%TD*%
D12*
%TO.C,R4*%
X111360000Y-108220000D03*
X111360000Y-107200000D03*
%TD*%
D10*
%TO.C,R6*%
X110330000Y-102430000D03*
X111350000Y-102430000D03*
%TD*%
D30*
%TO.C,C7*%
X123458200Y-102176800D03*
X121908200Y-102176800D03*
%TD*%
D31*
%TO.C,D1*%
X115710000Y-99095000D03*
X115710000Y-98405000D03*
%TD*%
D10*
%TO.C,R5*%
X123061000Y-109778800D03*
X124081000Y-109778800D03*
%TD*%
D11*
%TO.C,C6*%
X117180000Y-94890000D03*
X118140000Y-94890000D03*
%TD*%
D32*
%TO.C,IC1*%
X114820000Y-102370000D03*
X114820000Y-102870000D03*
X114820000Y-103370000D03*
X114820000Y-103870000D03*
X114820000Y-104370000D03*
X114820000Y-104870000D03*
X114820000Y-105370000D03*
D33*
X115670000Y-106220000D03*
X116170000Y-106220000D03*
X116670000Y-106220000D03*
X117170000Y-106220000D03*
X117670000Y-106220000D03*
X118170000Y-106220000D03*
X118670000Y-106220000D03*
D32*
X119520000Y-105370000D03*
X119520000Y-104870000D03*
X119520000Y-104370000D03*
X119520000Y-103870000D03*
X119520000Y-103370000D03*
X119520000Y-102870000D03*
X119520000Y-102370000D03*
D33*
X118670000Y-101520000D03*
X118170000Y-101520000D03*
X117670000Y-101520000D03*
X117170000Y-101520000D03*
X116670000Y-101520000D03*
X116170000Y-101520000D03*
X115670000Y-101520000D03*
D34*
X117170000Y-103870000D03*
%TD*%
M02*
