%TF.GenerationSoftware,KiCad,Pcbnew,7.0.8*%
%TF.CreationDate,2023-12-18T21:49:31+05:30*%
%TF.ProjectId,ESP WROOM 32-Devkit V4,45535020-5752-44f4-9f4d-2033322d4465,rev?*%
%TF.SameCoordinates,Original*%
%TF.FileFunction,Soldermask,Bot*%
%TF.FilePolarity,Negative*%
%FSLAX46Y46*%
G04 Gerber Fmt 4.6, Leading zero omitted, Abs format (unit mm)*
G04 Created by KiCad (PCBNEW 7.0.8) date 2023-12-18 21:49:31*
%MOMM*%
%LPD*%
G01*
G04 APERTURE LIST*
%ADD10O,1.700000X1.350000*%
%ADD11O,1.500000X1.100000*%
%ADD12R,1.700000X1.700000*%
%ADD13O,1.700000X1.700000*%
G04 APERTURE END LIST*
D10*
%TO.C,J1*%
X100822500Y-98600000D03*
D11*
X103822500Y-98910000D03*
X103822500Y-103750000D03*
D10*
X100822500Y-104060000D03*
%TD*%
D12*
%TO.C,J2*%
X146660000Y-89710000D03*
D13*
X144120000Y-89710000D03*
X141580000Y-89710000D03*
X139040000Y-89710000D03*
X136500000Y-89710000D03*
X133960000Y-89710000D03*
X131420000Y-89710000D03*
X128880000Y-89710000D03*
X126340000Y-89710000D03*
X123800000Y-89710000D03*
X121260000Y-89710000D03*
X118720000Y-89710000D03*
X116180000Y-89710000D03*
X113640000Y-89710000D03*
X111100000Y-89710000D03*
X108560000Y-89710000D03*
X106020000Y-89710000D03*
X103480000Y-89710000D03*
X100940000Y-89710000D03*
%TD*%
D12*
%TO.C,J3*%
X146650000Y-113680000D03*
D13*
X144110000Y-113680000D03*
X141570000Y-113680000D03*
X139030000Y-113680000D03*
X136490000Y-113680000D03*
X133950000Y-113680000D03*
X131410000Y-113680000D03*
X128870000Y-113680000D03*
X126330000Y-113680000D03*
X123790000Y-113680000D03*
X121250000Y-113680000D03*
X118710000Y-113680000D03*
X116170000Y-113680000D03*
X113630000Y-113680000D03*
X111090000Y-113680000D03*
X108550000Y-113680000D03*
X106010000Y-113680000D03*
X103470000Y-113680000D03*
X100930000Y-113680000D03*
%TD*%
M02*
